<svg width="16" height="16" viewBox="0 0 16 16" fill="none" xmlns="http://www.w3.org/2000/svg">
<g clip-path="url(#clip0_26_703)">
<path fill-rule="evenodd" clip-rule="evenodd" d="M10.354 6.14598C10.4006 6.19242 10.4375 6.2476 10.4627 6.30834C10.4879 6.36909 10.5009 6.43421 10.5009 6.49998C10.5009 6.56575 10.4879 6.63087 10.4627 6.69161C10.4375 6.75236 10.4006 6.80753 10.354 6.85398L7.35402 9.85398C7.30758 9.90054 7.2524 9.93748 7.19166 9.96269C7.13091 9.9879 7.06579 10.0009 7.00002 10.0009C6.93425 10.0009 6.86913 9.9879 6.80839 9.96269C6.74764 9.93748 6.69247 9.90054 6.64602 9.85398L5.14602 8.35398C5.09953 8.30749 5.06266 8.2523 5.0375 8.19156C5.01234 8.13082 4.99939 8.06572 4.99939 7.99998C4.99939 7.93423 5.01234 7.86913 5.0375 7.80839C5.06266 7.74766 5.09953 7.69247 5.14602 7.64598C5.19251 7.59949 5.2477 7.56261 5.30844 7.53745C5.36918 7.5123 5.43428 7.49935 5.50002 7.49935C5.56577 7.49935 5.63087 7.5123 5.69161 7.53745C5.75234 7.56261 5.80753 7.59949 5.85402 7.64598L7.00002 8.79298L9.64602 6.14598C9.69247 6.09941 9.74764 6.06247 9.80839 6.03727C9.86913 6.01206 9.93425 5.99908 10 5.99908C10.0658 5.99908 10.1309 6.01206 10.1917 6.03727C10.2524 6.06247 10.3076 6.09941 10.354 6.14598Z" fill="black"/>
<path d="M10.273 2.51299L9.35199 1.56899L10.067 0.870989L10.689 1.50799L11.579 1.49699C11.9642 1.49243 12.3465 1.56495 12.7033 1.71028C13.0601 1.85561 13.3843 2.07082 13.6567 2.34325C13.9292 2.61568 14.1444 2.93983 14.2897 3.29665C14.435 3.65347 14.5075 4.03574 14.503 4.42099L14.493 5.31099L15.129 5.93299C15.4044 6.20216 15.6233 6.52367 15.7728 6.87864C15.9222 7.2336 15.9992 7.61485 15.9992 7.99999C15.9992 8.38513 15.9222 8.76638 15.7728 9.12134C15.6233 9.47631 15.4044 9.79782 15.129 10.067L14.492 10.689L14.503 11.579C14.5075 11.9642 14.435 12.3465 14.2897 12.7033C14.1444 13.0601 13.9292 13.3843 13.6567 13.6567C13.3843 13.9292 13.0601 14.1444 12.7033 14.2897C12.3465 14.435 11.9642 14.5075 11.579 14.503L10.689 14.493L10.067 15.129C9.79782 15.4044 9.47631 15.6233 9.12134 15.7728C8.76638 15.9222 8.38513 15.9992 7.99999 15.9992C7.61485 15.9992 7.2336 15.9222 6.87864 15.7728C6.52367 15.6233 6.20216 15.4044 5.93299 15.129L5.31099 14.492L4.42099 14.503C4.03574 14.5075 3.65347 14.435 3.29665 14.2897C2.93983 14.1444 2.61568 13.9292 2.34325 13.6567C2.07082 13.3843 1.85561 13.0601 1.71028 12.7033C1.56495 12.3465 1.49243 11.9642 1.49699 11.579L1.50699 10.689L0.870989 10.067C0.595529 9.79782 0.376649 9.47631 0.227212 9.12134C0.0777741 8.76638 0.000793457 8.38513 0.000793457 7.99999C0.000793457 7.61485 0.0777741 7.2336 0.227212 6.87864C0.376649 6.52367 0.595529 6.20216 0.870989 5.93299L1.50799 5.31099L1.49699 4.42099C1.49243 4.03574 1.56495 3.65347 1.71028 3.29665C1.85561 2.93983 2.07082 2.61568 2.34325 2.34325C2.61568 2.07082 2.93983 1.85561 3.29665 1.71028C3.65347 1.56495 4.03574 1.49243 4.42099 1.49699L5.31099 1.50699L5.93299 0.870989C6.20216 0.595529 6.52367 0.376649 6.87864 0.227212C7.2336 0.0777741 7.61485 0.000793457 7.99999 0.000793457C8.38513 0.000793457 8.76638 0.0777741 9.12134 0.227212C9.47631 0.376649 9.79782 0.595529 10.067 0.870989L9.35199 1.56899C9.17595 1.38878 8.96566 1.24557 8.73348 1.1478C8.5013 1.05003 8.25191 0.999669 7.99999 0.999669C7.74806 0.999669 7.49868 1.05003 7.2665 1.1478C7.03432 1.24557 6.82403 1.38878 6.64799 1.56899L5.72799 2.51299L4.40799 2.49699C4.15617 2.49417 3.90632 2.54171 3.67313 2.63682C3.43994 2.73192 3.22811 2.87267 3.05008 3.05079C2.87205 3.22891 2.73141 3.44082 2.63643 3.67406C2.54145 3.9073 2.49404 4.15717 2.49699 4.40899L2.51299 5.72699L1.56899 6.64799C1.38878 6.82403 1.24557 7.03432 1.1478 7.2665C1.05003 7.49868 0.999669 7.74806 0.999669 7.99999C0.999669 8.25191 1.05003 8.5013 1.1478 8.73348C1.24557 8.96566 1.38878 9.17595 1.56899 9.35199L2.51299 10.272L2.49699 11.592C2.49417 11.8438 2.54171 12.0937 2.63682 12.3268C2.73192 12.56 2.87267 12.7719 3.05079 12.9499C3.22891 13.1279 3.44082 13.2686 3.67406 13.3635C3.9073 13.4585 4.15717 13.5059 4.40899 13.503L5.72699 13.487L6.64799 14.431C6.82403 14.6112 7.03432 14.7544 7.2665 14.8522C7.49868 14.9499 7.74806 15.0003 7.99999 15.0003C8.25191 15.0003 8.5013 14.9499 8.73348 14.8522C8.96566 14.7544 9.17595 14.6112 9.35199 14.431L10.272 13.487L11.592 13.503C11.8438 13.5058 12.0937 13.4583 12.3268 13.3632C12.56 13.2681 12.7719 13.1273 12.9499 12.9492C13.1279 12.7711 13.2686 12.5592 13.3635 12.3259C13.4585 12.0927 13.5059 11.8428 13.503 11.591L13.487 10.273L14.431 9.35199C14.6112 9.17595 14.7544 8.96566 14.8522 8.73348C14.9499 8.5013 15.0003 8.25191 15.0003 7.99999C15.0003 7.74806 14.9499 7.49868 14.8522 7.2665C14.7544 7.03432 14.6112 6.82403 14.431 6.64799L13.487 5.72799L13.503 4.40799C13.5058 4.15617 13.4583 3.90632 13.3632 3.67313C13.2681 3.43994 13.1273 3.22811 12.9492 3.05008C12.7711 2.87205 12.5592 2.73141 12.3259 2.63643C12.0927 2.54145 11.8428 2.49404 11.591 2.49699L10.273 2.51299Z" fill="black"/>
</g>
<defs>
<clipPath id="clip0_26_703">
<rect width="16" height="16" fill="white"/>
</clipPath>
</defs>
</svg>
