<svg width="16" height="15" viewBox="0 0 16 15" fill="none" xmlns="http://www.w3.org/2000/svg">
<path d="M9.97889 1.147C9.9982 1.08423 10.0049 1.01827 9.99876 0.952889C9.99258 0.887508 9.97357 0.823986 9.94284 0.765949C9.9121 0.707913 9.87023 0.656498 9.81963 0.614641C9.76902 0.572785 9.71067 0.541306 9.64789 0.522001C9.58512 0.502697 9.51916 0.495946 9.45378 0.502133C9.3884 0.508319 9.32488 0.527324 9.26684 0.55806C9.2088 0.588796 9.15739 0.630662 9.11553 0.681269C9.07368 0.731875 9.0422 0.79023 9.02289 0.853002L5.02289 13.853C4.98391 13.9798 4.99688 14.1168 5.05895 14.2341C5.12103 14.3513 5.22712 14.439 5.35389 14.478C5.48067 14.517 5.61774 14.504 5.73495 14.4419C5.85216 14.3799 5.93991 14.2738 5.97889 14.147L9.97889 1.147ZM4.35489 3.646C4.40146 3.69245 4.4384 3.74762 4.46361 3.80837C4.48881 3.86911 4.50179 3.93423 4.50179 4C4.50179 4.06577 4.48881 4.13089 4.46361 4.19164C4.4384 4.25238 4.40146 4.30756 4.35489 4.354L1.20789 7.5L4.35489 10.646C4.44878 10.7399 4.50153 10.8672 4.50153 11C4.50153 11.1328 4.44878 11.2601 4.35489 11.354C4.26101 11.4479 4.13367 11.5006 4.00089 11.5006C3.86812 11.5006 3.74078 11.4479 3.64689 11.354L0.146894 7.854C0.100331 7.80756 0.0633877 7.75238 0.0381812 7.69163C0.0129748 7.63089 0 7.56577 0 7.5C0 7.43423 0.0129748 7.36911 0.0381812 7.30837C0.0633877 7.24762 0.100331 7.19245 0.146894 7.146L3.64689 3.646C3.69334 3.59944 3.74851 3.5625 3.80926 3.53729C3.87001 3.51208 3.93513 3.49911 4.00089 3.49911C4.06666 3.49911 4.13178 3.51208 4.19253 3.53729C4.25327 3.5625 4.30845 3.59944 4.35489 3.646ZM10.6469 3.646C10.6003 3.69245 10.5634 3.74762 10.5382 3.80837C10.513 3.86911 10.5 3.93423 10.5 4C10.5 4.06577 10.513 4.13089 10.5382 4.19164C10.5634 4.25238 10.6003 4.30756 10.6469 4.354L13.7939 7.5L10.6469 10.646C10.6004 10.6925 10.5635 10.7477 10.5384 10.8084C10.5132 10.8692 10.5003 10.9343 10.5003 11C10.5003 11.0657 10.5132 11.1308 10.5384 11.1916C10.5635 11.2523 10.6004 11.3075 10.6469 11.354C10.6934 11.4005 10.7486 11.4374 10.8093 11.4625C10.87 11.4877 10.9352 11.5006 11.0009 11.5006C11.0666 11.5006 11.1317 11.4877 11.1925 11.4625C11.2532 11.4374 11.3084 11.4005 11.3549 11.354L14.8549 7.854C14.9015 7.80756 14.9384 7.75238 14.9636 7.69163C14.9888 7.63089 15.0018 7.56577 15.0018 7.5C15.0018 7.43423 14.9888 7.36911 14.9636 7.30837C14.9384 7.24762 14.9015 7.19245 14.8549 7.146L11.3549 3.646C11.3084 3.59944 11.2533 3.5625 11.1925 3.53729C11.1318 3.51208 11.0667 3.49911 11.0009 3.49911C10.9351 3.49911 10.87 3.51208 10.8093 3.53729C10.7485 3.5625 10.6933 3.59944 10.6469 3.646Z" fill="#F7F0FF"/>
</svg>
