<svg width="16" height="14" viewBox="0 0 16 14" fill="none" xmlns="http://www.w3.org/2000/svg">
<path d="M8.21101 0.0470071C8.14492 0.0162446 8.07291 0.000305176 8.00001 0.000305176C7.92711 0.000305176 7.8551 0.0162446 7.78901 0.0470071L0.289011 3.54701C0.200693 3.58823 0.126349 3.65437 0.0751219 3.73728C0.0238946 3.8202 -0.00198212 3.91628 0.000674054 4.01371C0.00333023 4.11114 0.0344035 4.20567 0.0900724 4.28567C0.145741 4.36567 0.223578 4.42766 0.314011 4.46401L7.81401 7.46401C7.9334 7.51185 8.06663 7.51185 8.18601 7.46401L14 5.14001V11C13.7348 11 13.4804 11.1054 13.2929 11.2929C13.1054 11.4804 13 11.7348 13 12V14H16V12C16 11.7348 15.8947 11.4804 15.7071 11.2929C15.5196 11.1054 15.2652 11 15 11V4.73901L15.686 4.46401C15.7764 4.42766 15.8543 4.36567 15.9099 4.28567C15.9656 4.20567 15.9967 4.11114 15.9993 4.01371C16.002 3.91628 15.9761 3.8202 15.9249 3.73728C15.8737 3.65437 15.7993 3.58823 15.711 3.54701L8.21101 0.0470071V0.0470071ZM8.00001 6.46001L1.75801 3.96501L8.00001 1.05201L14.242 3.96501L8.00001 6.46001Z" fill="url(#paint0_linear_42_2)"/>
<path d="M4.17599 7.03198C4.1116 7.00772 4.04291 6.99702 3.9742 7.00053C3.90548 7.00404 3.83824 7.0217 3.77666 7.05239C3.71509 7.08309 3.66051 7.12616 3.61634 7.17891C3.57218 7.23166 3.53938 7.29296 3.51999 7.35898L3.01999 9.05898C2.98497 9.17832 2.99568 9.30644 3.05004 9.41831C3.10441 9.53017 3.19851 9.61777 3.31399 9.66398L7.81399 11.464C7.93337 11.5118 8.0666 11.5118 8.18599 11.464L12.686 9.66398C12.8015 9.61777 12.8956 9.53017 12.9499 9.41831C13.0043 9.30644 13.015 9.17832 12.98 9.05898L12.48 7.35898C12.4606 7.29296 12.4278 7.23166 12.3836 7.17891C12.3395 7.12616 12.2849 7.08309 12.2233 7.05239C12.1617 7.0217 12.0945 7.00404 12.0258 7.00053C11.9571 6.99702 11.8884 7.00772 11.824 7.03198L7.99999 8.46598L4.17599 7.03198ZM4.10799 8.90498L4.32799 8.15698L7.82399 9.46798C7.93744 9.51064 8.06253 9.51064 8.17599 9.46798L11.672 8.15698L11.892 8.90498L7.99999 10.46L4.10799 8.90398V8.90498Z" fill="url(#paint1_linear_42_2)"/>
<defs>
<linearGradient id="paint0_linear_42_2" x1="8.00025" y1="0.000305176" x2="8.00025" y2="14" gradientUnits="userSpaceOnUse">
<stop stop-color="#A973C1"/>
<stop offset="1" stop-color="#4E3D86"/>
</linearGradient>
<linearGradient id="paint1_linear_42_2" x1="7.99999" y1="6.99988" x2="7.99999" y2="11.4999" gradientUnits="userSpaceOnUse">
<stop stop-color="#A973C1"/>
<stop offset="1" stop-color="#4E3D86"/>
</linearGradient>
</defs>
</svg>
