<svg width="25" height="26" viewBox="0 0 25 26" fill="none" xmlns="http://www.w3.org/2000/svg">
<path d="M12.5 0.453857C5.59375 0.453857 0 6.10762 0 13.088C0 18.6786 3.57812 23.4006 8.54688 25.0746C9.17188 25.1851 9.40625 24.8061 9.40625 24.4745C9.40625 24.1744 9.39062 23.1795 9.39062 22.1214C6.25 22.7057 5.4375 21.3475 5.1875 20.6368C5.04688 20.2736 4.4375 19.1523 3.90625 18.8523C3.46875 18.6154 2.84375 18.0311 3.89062 18.0153C4.875 17.9995 5.57812 18.9312 5.8125 19.3103C6.9375 21.2212 8.73438 20.6842 9.45312 20.3526C9.5625 19.5314 9.89062 18.9786 10.25 18.6628C7.46875 18.3469 4.5625 17.2572 4.5625 12.4247C4.5625 11.0507 5.04688 9.91365 5.84375 9.02926C5.71875 8.71341 5.28125 7.41841 5.96875 5.68122C5.96875 5.68122 7.01562 5.34957 9.40625 6.97622C10.4062 6.69195 11.4688 6.54981 12.5313 6.54981C13.5938 6.54981 14.6563 6.69195 15.6563 6.97622C18.0469 5.33378 19.0938 5.68122 19.0938 5.68122C19.7812 7.41841 19.3438 8.71341 19.2188 9.02926C20.0156 9.91365 20.5 11.0349 20.5 12.4247C20.5 17.273 17.5781 18.3469 14.7969 18.6628C15.25 19.0576 15.6406 19.8156 15.6406 21.0001C15.6406 22.6899 15.625 24.0481 15.625 24.4745C15.625 24.8061 15.8594 25.2009 16.4844 25.0746C18.966 24.2281 21.1224 22.6162 22.65 20.4659C24.1777 18.3156 24.9996 15.7352 25 13.088C25 6.10762 19.4062 0.453857 12.5 0.453857Z" fill="#8B63B5"/>
</svg>
