<svg width="25" height="26" viewBox="0 0 25 26" fill="none" xmlns="http://www.w3.org/2000/svg">
<path d="M0 2.25295C0 1.25328 0.821875 0.443115 1.83594 0.443115H23.1641C24.1781 0.443115 25 1.25328 25 2.25295V23.9015C25 24.9012 24.1781 25.7113 23.1641 25.7113H1.83594C0.821875 25.7113 0 24.9012 0 23.9015V2.25295ZM7.72344 21.5958V10.1856H3.97188V21.5958H7.72344ZM5.84844 8.62686C7.15625 8.62686 7.97031 7.75195 7.97031 6.65594C7.94687 5.53624 7.15781 4.68502 5.87344 4.68502C4.58906 4.68502 3.75 5.53782 3.75 6.65594C3.75 7.75195 4.56406 8.62686 5.82344 8.62686H5.84844ZM13.5172 21.5958V15.2234C13.5172 14.8823 13.5422 14.5412 13.6422 14.298C13.9125 13.6173 14.5297 12.9114 15.5672 12.9114C16.925 12.9114 17.4672 13.9569 17.4672 15.4919V21.5958H21.2188V15.0513C21.2188 11.5453 19.3687 9.91554 16.9 9.91554C14.9094 9.91554 14.0172 11.021 13.5172 11.7996V11.8391H13.4922C13.5005 11.8259 13.5088 11.8127 13.5172 11.7996V10.1856H9.76719C9.81406 11.2563 9.76719 21.5958 9.76719 21.5958H13.5172Z" fill="#8B63B5"/>
</svg>
