<svg width="160" height="223" viewBox="0 0 160 223" fill="none" xmlns="http://www.w3.org/2000/svg">
<path fill-rule="evenodd" clip-rule="evenodd" d="M25.8065 6.88992C27.7068 6.88992 29.2473 5.34756 29.2473 3.44496C29.2473 1.54236 27.7068 0 25.8065 0C23.9061 0 22.3656 1.54236 22.3656 3.44496C22.3656 4.83133 23.1836 6.02644 24.3627 6.5729L12.4541 43.0863C12.3193 43.0702 12.1821 43.062 12.043 43.062C10.1427 43.062 8.60215 44.6043 8.60215 46.5069C8.60215 48.4095 10.1427 49.9519 12.043 49.9519C12.4406 49.9519 12.8224 49.8844 13.1777 49.7602L24.2219 78.7857L5.31467 51.1192C6.25797 50.5049 6.88172 49.4401 6.88172 48.2294C6.88172 46.6708 5.84783 45.3539 4.4292 44.9287L9.2887 10.1767C9.61504 10.2794 9.96234 10.3349 10.3226 10.3349C12.2229 10.3349 13.7634 8.79251 13.7634 6.88992C13.7634 4.98732 12.2229 3.44496 10.3226 3.44496C8.42225 3.44496 6.88172 4.98732 6.88172 6.88992C6.88172 8.13266 7.53899 9.22172 8.52448 9.82764L3.63558 44.7899C3.57113 44.7863 3.50621 44.7845 3.44086 44.7845C1.54053 44.7845 0 46.3268 0 48.2294C0 50.132 1.54053 51.6744 3.44086 51.6744C3.84213 51.6744 4.22735 51.6056 4.58541 51.4792L24.6331 80.8145C24.2869 81.3519 24.086 81.992 24.086 82.679C24.086 84.5816 25.6265 86.1239 27.5269 86.1239C28.2287 86.1239 28.8815 85.9136 29.4257 85.5523L36.846 92.1074C36.3905 92.8776 36.129 93.7764 36.129 94.7363C36.129 97.5902 38.4398 99.9038 41.2903 99.9038C41.887 99.9038 42.46 99.8024 42.9931 99.616L75.1238 151.236C74.413 152.004 73.9785 153.032 73.9785 154.162C73.9785 156.059 75.2043 157.67 76.9063 158.244L75.4081 213.743C73.5916 214.247 72.2581 215.915 72.2581 217.894C72.2581 220.272 74.1837 222.2 76.5591 222.2C78.9346 222.2 80.8602 220.272 80.8602 217.894C80.8602 217.433 80.788 216.989 80.6543 216.573L132.805 198.189C133.542 200.141 135.426 201.53 137.634 201.53C140.485 201.53 142.796 199.217 142.796 196.363C142.796 193.509 140.485 191.195 137.634 191.195C136.486 191.195 135.425 191.571 134.567 192.206L108.725 152.221C108.7 152.182 108.668 152.148 108.632 152.12L97.7298 143.773C97.9454 143.26 98.0645 142.696 98.0645 142.105C98.0645 139.884 96.3856 138.056 94.2292 137.823L94.9308 99.8948C97.6383 99.7357 99.785 97.487 99.785 94.7363C99.785 94.3584 99.7444 93.9899 99.6675 93.6349L153.511 77.3888C154.087 78.4858 155.236 79.234 156.559 79.234C156.714 79.234 156.867 79.2238 157.017 79.2038V106.825C155.783 107.019 154.839 108.088 154.839 109.377C154.839 110.021 155.073 110.609 155.462 111.061L145.38 117.79C144.923 117.379 144.319 117.129 143.656 117.129C142.231 117.129 141.075 118.285 141.075 119.712C141.075 121.139 142.231 122.296 143.656 122.296C145.081 122.296 146.237 121.139 146.237 119.712C146.237 119.241 146.11 118.799 145.89 118.418L156.104 111.601C156.489 111.83 156.939 111.961 157.419 111.961C158.845 111.961 160 110.804 160 109.377C160 108.088 159.056 107.018 157.822 106.825V78.9947C159.097 78.4906 160 77.2454 160 75.7891C160 73.8865 158.459 72.3441 156.559 72.3441C156.46 72.3441 156.361 72.3484 156.264 72.3567L153.657 66.7645C154.368 66.3044 154.839 65.5037 154.839 64.593C154.839 63.166 153.683 62.0092 152.258 62.0092C151.977 62.0092 151.706 62.0542 151.453 62.1375L135.915 33.988C136.943 33.3922 137.634 32.2792 137.634 31.0046C137.634 29.102 136.094 27.5597 134.194 27.5597C132.293 27.5597 130.753 29.102 130.753 31.0046C130.753 32.9072 132.293 34.4496 134.194 34.4496C134.534 34.4496 134.862 34.4002 135.172 34.3082L150.737 62.5058C150.094 62.9758 149.677 63.7356 149.677 64.593C149.677 66.0199 150.833 67.1767 152.258 67.1767C152.487 67.1767 152.709 67.1468 152.921 67.0907L155.454 72.5257C154.096 72.9866 153.118 74.2735 153.118 75.7891C153.118 76.0809 153.155 76.3642 153.223 76.6347L99.4357 92.8638C98.6865 90.9356 96.8145 89.5689 94.6237 89.5689C93.277 89.5689 92.0507 90.0853 91.1317 90.9311L74.6049 75.5257C75.2904 74.6486 75.6989 73.5441 75.6989 72.3441C75.6989 69.4902 73.3881 67.1767 70.5376 67.1767C67.6871 67.1767 65.3763 69.4902 65.3763 72.3441C65.3763 72.9737 65.4888 73.577 65.6947 74.1349L44.6821 90.8413C43.775 90.0489 42.5887 89.5689 41.2903 89.5689C39.6892 89.5689 38.2584 90.2988 37.3117 91.4444L30.0459 85.0258C30.6179 84.4106 30.9677 83.5857 30.9677 82.679C30.9677 80.7764 29.4272 79.234 27.5269 79.234C26.771 79.234 26.072 79.4781 25.5042 79.8918L13.904 49.405C14.8545 48.792 15.4839 47.723 15.4839 46.5069C15.4839 45.0255 14.5499 43.7624 13.2392 43.2759L25.1281 6.82298C25.3474 6.86688 25.5742 6.88992 25.8065 6.88992ZM43.737 99.2874C45.3533 98.4146 46.4516 96.7039 46.4516 94.7363C46.4516 93.4739 45.9994 92.3172 45.2484 91.4197L66.0432 74.8865C66.9296 76.4538 68.6102 77.5116 70.5376 77.5116C71.8999 77.5116 73.139 76.9831 74.0614 76.1199L90.5833 91.5206C89.8816 92.4031 89.4624 93.5207 89.4624 94.7363C89.4624 97.4221 91.5088 99.6292 94.1257 99.88L93.4241 137.812C91.2073 137.985 89.4624 139.841 89.4624 142.105C89.4624 143.239 89.9007 144.271 90.6171 145.041L89.3722 146.821C88.887 146.559 88.3318 146.411 87.7419 146.411C85.8416 146.411 84.3011 147.953 84.3011 149.856C84.3011 150.183 84.3467 150.5 84.432 150.8L81.9102 151.852C81.1469 150.652 79.8061 149.856 78.2796 149.856C77.3266 149.856 76.446 150.166 75.7331 150.691L43.737 99.2874ZM77.7067 158.43C77.8941 158.455 78.0854 158.468 78.2796 158.468C80.655 158.468 82.5806 156.54 82.5806 154.162C82.5806 153.6 82.4732 153.063 82.2777 152.571L84.7416 151.543C85.3315 152.592 86.4541 153.301 87.7419 153.301C89.6423 153.301 91.1828 151.758 91.1828 149.856C91.1828 148.833 90.7378 147.915 90.0312 147.284L91.2228 145.579C91.9346 146.102 92.813 146.411 93.7634 146.411C95.257 146.411 96.5727 145.649 97.3438 144.492L108.087 152.717L133.954 192.74C133.038 193.673 132.473 194.952 132.473 196.363C132.473 196.723 132.51 197.075 132.58 197.414L80.3361 215.832C79.6063 214.495 78.1885 213.587 76.5591 213.587C76.4441 213.587 76.3302 213.592 76.2174 213.601L77.7067 158.43Z" fill="#545454"/>
</svg>
