<svg width="29" height="40" viewBox="0 0 29 40" fill="none" xmlns="http://www.w3.org/2000/svg">
<path fill-rule="evenodd" clip-rule="evenodd" d="M5.16049 0.948149C5.2208 0.852693 5.25571 0.739582 5.25571 0.618319C5.25571 0.276831 4.97888 0 4.63739 0C4.31034 0 4.04259 0.253925 4.02054 0.575383L1.59404 8.00653C1.57392 8.06815 1.56407 8.13215 1.56443 8.19605C1.55226 8.24445 1.5458 8.29513 1.5458 8.34731C1.5458 8.53401 1.62854 8.70138 1.75937 8.81475L2.27678 10.173L1.24439 8.66408L2.21372 1.74029C2.37084 1.62817 2.47328 1.44437 2.47328 1.23664C2.47328 1.00727 2.34838 0.807069 2.16289 0.700334C2.07078 0.588638 1.93818 0.509778 1.7835 0.488123C1.45551 0.442204 1.15239 0.670869 1.10648 0.998861L0.0760326 8.35917C0.0275666 8.44738 0 8.54871 0 8.65647C0 8.70864 0.00646323 8.75931 0.0186328 8.80772C0.0179691 8.92905 0.0541584 9.04844 0.123384 9.14962L4.14246 15.0236C4.17046 15.0646 4.20343 15.1019 4.24061 15.1347L6.50072 17.1289C6.54728 17.4742 6.78388 17.7592 7.10179 17.8753L13.3078 27.8338L13.0082 38.9186C12.9929 38.9794 12.9847 39.0431 12.9847 39.1087C12.9847 39.5355 13.3307 39.8816 13.7576 39.8816C14.064 39.8816 14.3287 39.7033 14.4538 39.4448L24.2091 36.0098C24.3582 36.1119 24.5385 36.1717 24.7328 36.1717C25.245 36.1717 25.6602 35.7564 25.6602 35.2442C25.6602 34.7319 25.245 34.3167 24.7328 34.3167C24.7194 34.3167 24.7061 34.317 24.6929 34.3175L19.9805 27.0348C19.9431 26.977 19.896 26.926 19.8413 26.8842L17.5064 25.0987C17.4906 25.0733 17.4735 25.0489 17.455 25.0256L17.5902 17.7223C17.7039 17.6294 17.7952 17.5101 17.8546 17.3736L27.6884 14.41V19.4652L25.6367 20.833C25.4567 20.953 25.3625 21.1534 25.3701 21.3549C25.3577 21.3966 25.3511 21.4408 25.3511 21.4866C25.3511 21.7427 25.5587 21.9503 25.8148 21.9503C25.8607 21.9503 25.905 21.9437 25.9469 21.9312C26.0686 21.9359 26.1929 21.9036 26.302 21.8309L28.6207 20.2851C28.7875 20.1739 28.8877 19.9867 28.8877 19.7862V13.603C28.8877 13.5153 28.8685 13.4288 28.8315 13.3494L27.7494 11.0307C27.7437 11.0183 27.7375 11.0062 27.7309 10.9942L24.7327 5.56903C24.7328 5.56765 24.7328 5.56626 24.7328 5.56487C24.7328 5.33561 24.608 5.13548 24.4226 5.02871C24.2426 4.80986 23.9267 4.74337 23.6698 4.88538C23.3799 5.04557 23.2748 5.41042 23.435 5.70029L26.6712 11.5564L27.4517 13.2287L17.5082 16.2254C17.363 16.1311 17.1898 16.0763 17.0038 16.0763C16.9668 16.0763 16.9303 16.0785 16.8945 16.0827L13.6024 13.0176C13.6028 13.0067 13.603 12.9957 13.603 12.9847C13.603 12.4725 13.1878 12.0572 12.6755 12.0572C12.2934 12.0572 11.9652 12.2883 11.8232 12.6184L7.4673 16.0775C7.45158 16.0767 7.43575 16.0763 7.41983 16.0763C7.33027 16.0763 7.24368 16.089 7.16175 16.1127L5.54585 14.6869C5.49124 14.472 5.3241 14.302 5.11085 14.2434L2.79995 8.17729L5.16049 0.948149ZM8.2409 17.4355C8.30885 17.3066 8.34731 17.1597 8.34731 17.0038C8.34731 16.9734 8.34584 16.9433 8.34298 16.9136L12.2515 13.8098C12.3786 13.8752 12.5227 13.9122 12.6755 13.9122C12.716 13.9122 12.7559 13.9096 12.795 13.9046L16.0773 16.9605C16.0766 16.9748 16.0763 16.9893 16.0763 17.0038C16.0763 17.2812 16.1981 17.5301 16.3911 17.7001L16.2557 25.0105C16.1652 25.1189 16.1038 25.2524 16.0836 25.399L15.3757 26.4103L14.1859 26.906C14.1705 26.9036 14.1549 26.9017 14.1392 26.9002L8.2409 17.4355ZM14.4946 28.3135L14.226 38.2535L23.6614 34.9312L19.0301 27.7737L17.0429 26.2541C17.0079 26.2631 16.9719 26.2698 16.9352 26.2738L16.3453 27.1166C16.2671 27.3223 16.0821 27.4755 15.8581 27.5085L14.7851 27.9557C14.7266 28.1024 14.6244 28.2271 14.4946 28.3135Z" fill="#F7F7F7"/>
</svg>
