<svg width="16" height="13" viewBox="0 0 16 13" fill="none" xmlns="http://www.w3.org/2000/svg">
<path d="M0 2.69211C0 2.15599 0.210714 1.64182 0.585786 1.26273C0.960859 0.883629 1.46957 0.670654 2 0.670654H14C14.5304 0.670654 15.0391 0.883629 15.4142 1.26273C15.7893 1.64182 16 2.15599 16 2.69211V10.7779C16 11.3141 15.7893 11.8282 15.4142 12.2073C15.0391 12.5864 14.5304 12.7994 14 12.7994H2C1.46957 12.7994 0.960859 12.5864 0.585786 12.2073C0.210714 11.8282 0 11.3141 0 10.7779V2.69211ZM2 1.68138C1.73478 1.68138 1.48043 1.78787 1.29289 1.97742C1.10536 2.16697 1 2.42405 1 2.69211V2.91144L8 7.1565L15 2.91144V2.69211C15 2.42405 14.8946 2.16697 14.7071 1.97742C14.5196 1.78787 14.2652 1.68138 14 1.68138H2ZM15 4.08995L10.292 6.94526L15 9.87334V4.08995ZM14.966 11.0397L9.326 7.53148L8 8.33501L6.674 7.53148L1.034 11.0387C1.09083 11.2538 1.21632 11.4439 1.39099 11.5795C1.56566 11.7151 1.77975 11.7886 2 11.7887H14C14.2201 11.7887 14.4341 11.7153 14.6088 11.5799C14.7834 11.4445 14.909 11.2546 14.966 11.0397ZM1 9.87334L5.708 6.94526L1 4.08995V9.87334Z" fill="#8B63B5"/>
</svg>
