<svg width="11" height="16" viewBox="0 0 11 16" fill="none" xmlns="http://www.w3.org/2000/svg">
<path d="M8.7512 0.0684417C8.84907 0.12518 8.92481 0.213432 8.96604 0.318779C9.00727 0.424127 9.01156 0.540343 8.9782 0.648442L7.1772 6.50044H10.5002C10.5979 6.5004 10.6934 6.52896 10.775 6.58259C10.8566 6.63622 10.9207 6.71258 10.9594 6.80223C10.9981 6.89189 11.0098 6.99092 10.9928 7.08709C10.9759 7.18327 10.9312 7.27239 10.8642 7.34344L2.8642 15.8434C2.78679 15.9258 2.68379 15.9794 2.57197 15.9957C2.46016 16.012 2.34613 15.9899 2.24847 15.9331C2.15081 15.8762 2.07528 15.788 2.03419 15.6827C1.9931 15.5775 1.98887 15.4614 2.0222 15.3534L3.8232 9.50044H0.500199C0.402544 9.50048 0.307016 9.47192 0.225405 9.41829C0.143795 9.36466 0.0796765 9.2883 0.0409646 9.19865C0.00225258 9.109 -0.00935794 9.00997 0.00756616 8.91379C0.0244903 8.81761 0.069208 8.7285 0.136199 8.65744L8.1362 0.157442C8.21351 0.0752409 8.31636 0.0216103 8.42802 0.00527029C8.53967 -0.0110698 8.65357 0.0108416 8.7512 0.0674417V0.0684417ZM1.6572 8.50044H4.5002C4.57845 8.50043 4.65561 8.51878 4.72547 8.55402C4.79533 8.58925 4.85595 8.6404 4.90245 8.70333C4.94895 8.76627 4.98002 8.83924 4.99318 8.91637C5.00633 8.99351 5.0012 9.07265 4.9782 9.14744L3.6102 13.5904L9.3422 7.50044H6.5002C6.42195 7.50046 6.34479 7.48211 6.27493 7.44687C6.20506 7.41163 6.14445 7.36049 6.09795 7.29755C6.05145 7.23461 6.02038 7.16164 6.00722 7.08451C5.99406 7.00738 5.99919 6.92823 6.0222 6.85344L7.3902 2.41044L1.6572 8.50044Z" fill="#B8B8B8"/>
</svg>
