<svg width="14" height="9" viewBox="0 0 14 9" fill="none" xmlns="http://www.w3.org/2000/svg">
<path fill-rule="evenodd" clip-rule="evenodd" d="M0 4.49999C0 4.36738 0.0526784 4.24021 0.146447 4.14644C0.240215 4.05267 0.367392 3.99999 0.5 3.99999H12.293L9.146 0.853991C9.05211 0.760104 8.99937 0.632766 8.99937 0.499991C8.99937 0.367215 9.05211 0.239877 9.146 0.145991C9.23989 0.052104 9.36722 -0.000640866 9.5 -0.000640869C9.63278 -0.000640872 9.76011 0.052104 9.854 0.145991L13.854 4.14599C13.9006 4.19244 13.9375 4.24761 13.9627 4.30836C13.9879 4.3691 14.0009 4.43422 14.0009 4.49999C14.0009 4.56576 13.9879 4.63088 13.9627 4.69162C13.9375 4.75237 13.9006 4.80754 13.854 4.85399L9.854 8.85399C9.76011 8.94788 9.63278 9.00062 9.5 9.00062C9.36722 9.00062 9.23989 8.94788 9.146 8.85399C9.05211 8.7601 8.99937 8.63277 8.99937 8.49999C8.99937 8.36722 9.05211 8.23988 9.146 8.14599L12.293 4.99999H0.5C0.367392 4.99999 0.240215 4.94731 0.146447 4.85354C0.0526784 4.75978 0 4.6326 0 4.49999Z" fill="#F7F0FF"/>
</svg>
