<svg width="20" height="21" viewBox="0 0 20 21" fill="none" xmlns="http://www.w3.org/2000/svg">
<path d="M3.1074 0.636238C3.1074 0.467497 3.17343 0.305668 3.29098 0.18635C3.40852 0.0670321 3.56794 0 3.73417 0L16.2696 0C16.4358 0 16.5952 0.0670321 16.7128 0.18635C16.8303 0.305668 16.8964 0.467497 16.8964 0.636238C16.8964 1.32083 16.8813 1.97234 16.8537 2.59076C17.3491 2.67402 17.8229 2.85712 18.2474 3.12925C18.6719 3.40138 19.0384 3.75704 19.3254 4.17526C19.6123 4.59348 19.8138 5.06578 19.9181 5.56432C20.0223 6.06286 20.0271 6.57754 19.9323 7.07801C19.8375 7.57848 19.6449 8.0546 19.3659 8.47831C19.0869 8.90201 18.7271 9.26472 18.3078 9.54503C17.8885 9.82535 17.4182 10.0176 16.9245 10.1104C16.4308 10.2033 15.9239 10.1949 15.4335 10.0857C14.4432 12.4588 13.0793 13.6193 11.8822 13.9171V16.6822L13.6685 17.1352C13.9117 17.1963 14.1411 17.307 14.3416 17.4597L16.6456 19.2144C16.7509 19.2945 16.8286 19.4062 16.8678 19.5337C16.9071 19.6611 16.9058 19.7979 16.8642 19.9246C16.8226 20.0513 16.7428 20.1615 16.6361 20.2395C16.5293 20.3176 16.4011 20.3596 16.2696 20.3596H3.73417C3.60262 20.3596 3.47441 20.3176 3.36769 20.2395C3.26097 20.1615 3.18116 20.0513 3.13956 19.9246C3.09796 19.7979 3.09668 19.6611 3.13591 19.5337C3.17513 19.4062 3.25287 19.2945 3.35811 19.2144L5.66212 17.4597C5.86268 17.307 6.09208 17.1963 6.33527 17.1352L8.12156 16.6822V13.9171C6.92443 13.6193 5.56058 12.4588 4.57028 10.0844C4.07963 10.1942 3.57227 10.2031 3.07818 10.1105C2.58409 10.018 2.11327 9.82584 1.69354 9.5455C1.27382 9.26516 0.913685 8.90228 0.634419 8.4783C0.355153 8.05431 0.162414 7.57782 0.0675865 7.07696C-0.0272413 6.5761 -0.0222356 6.06103 0.0823079 5.56217C0.186851 5.06331 0.388813 4.59077 0.676265 4.17246C0.963717 3.75415 1.33083 3.39855 1.75593 3.12667C2.18102 2.85479 2.65548 2.67213 3.15127 2.58949C3.12176 1.93884 3.10713 1.28758 3.1074 0.636238ZM3.2315 3.86833C2.57738 3.98982 1.9976 4.37011 1.61971 4.92554C1.24181 5.48096 1.09675 6.16602 1.21643 6.83002C1.33612 7.49401 1.71075 8.08255 2.25791 8.46616C2.80507 8.84977 3.47993 8.99702 4.13405 8.87553C3.71662 7.53942 3.39697 5.8903 3.2315 3.86833ZM15.871 8.87553C16.5251 8.99702 17.1999 8.84977 17.7471 8.46616C18.2943 8.08255 18.6689 7.49401 18.7886 6.83002C18.9083 6.16602 18.7632 5.48096 18.3853 4.92554C18.0074 4.37011 17.4276 3.98982 16.7735 3.86833C16.6068 5.89157 16.2871 7.53942 15.871 8.87553ZM4.36595 1.27248C4.37473 1.93035 4.39855 2.55259 4.43615 3.14175C4.59911 5.72233 5.00902 7.65395 5.52673 9.08039C6.60979 12.0631 8.10151 12.7248 8.74834 12.7248C8.91457 12.7248 9.07399 12.7918 9.19153 12.9111C9.30907 13.0304 9.37511 13.1923 9.37511 13.361V16.6822C9.3751 16.9658 9.28172 17.2414 9.10979 17.465C8.93786 17.6886 8.69725 17.8475 8.42618 17.9165L6.63863 18.3695C6.55747 18.39 6.48118 18.4267 6.41424 18.4776L5.61448 19.0872H14.3893L13.5895 18.4776C13.5222 18.4266 13.4455 18.3898 13.3639 18.3695L11.5776 17.9165C11.3065 17.8475 11.0659 17.6886 10.894 17.465C10.722 17.2414 10.6287 16.9658 10.6286 16.6822V13.361C10.6286 13.1923 10.6947 13.0304 10.8122 12.9111C10.9298 12.7918 11.0892 12.7248 11.2554 12.7248C11.9022 12.7248 13.394 12.0631 14.477 9.08039C14.9947 7.65522 15.4046 5.72106 15.5676 3.14175C15.6052 2.55259 15.629 1.93035 15.6378 1.27248H4.36595Z" fill="#A882CF"/>
</svg>
