<svg width="10" height="5" viewBox="0 0 10 5" fill="none" xmlns="http://www.w3.org/2000/svg">
<path d="M1.17599 0.0319766C1.1116 0.00772238 1.04291 -0.00298261 0.974196 0.0005301C0.905485 0.00404282 0.838238 0.0216983 0.776663 0.0523919C0.715088 0.0830854 0.660511 0.126156 0.616345 0.17891C0.572179 0.231664 0.539376 0.292965 0.519988 0.358977L0.0199877 2.05898C-0.0150349 2.17832 -0.00431874 2.30644 0.050044 2.41831C0.104407 2.53017 0.198513 2.61777 0.313988 2.66398L4.81399 4.46398C4.93337 4.51182 5.0666 4.51182 5.18599 4.46398L9.68599 2.66398C9.80146 2.61777 9.89557 2.53017 9.94993 2.41831C10.0043 2.30644 10.015 2.17832 9.97999 2.05898L9.47999 0.358977C9.4606 0.292965 9.4278 0.231664 9.38363 0.17891C9.33947 0.126156 9.28489 0.0830854 9.22331 0.0523919C9.16174 0.0216983 9.09449 0.00404282 9.02578 0.0005301C8.95707 -0.00298261 8.88837 0.00772238 8.82399 0.0319766L4.99999 1.46598L1.17599 0.0319766ZM1.10799 1.90498L1.32799 1.15698L4.82399 2.46798C4.93744 2.51064 5.06253 2.51064 5.17599 2.46798L8.67199 1.15698L8.89199 1.90498L4.99999 3.45998L1.10799 1.90398V1.90498Z" fill="url(#paint0_linear_23_503)"/>
<defs>
<linearGradient id="paint0_linear_23_503" x1="4.99999" y1="-0.00012207" x2="4.99999" y2="4.49986" gradientUnits="userSpaceOnUse">
<stop stop-color="#A973C1"/>
<stop offset="1" stop-color="#4E3D86"/>
</linearGradient>
</defs>
</svg>
