<svg width="16" height="18" viewBox="0 0 16 18" fill="none" xmlns="http://www.w3.org/2000/svg">
<path d="M13.601 3.32201C12.8675 2.57375 11.9939 1.98052 11.0313 1.57689C10.0687 1.17327 9.03617 0.967325 7.994 0.971058C3.627 0.971058 0.068 4.56723 0.064 8.98209C0.064 10.3961 0.43 11.7717 1.121 12.9896L0 17.1427L4.204 16.0289C5.367 16.6686 6.66993 17.0039 7.994 17.0042H7.998C12.366 17.0042 15.924 13.4081 15.928 8.98917C15.929 7.93603 15.7238 6.8931 15.3243 5.92047C14.9247 4.94784 14.3397 4.06473 13.601 3.32201ZM7.994 15.6478C6.813 15.6482 5.6537 15.327 4.638 14.718L4.398 14.5724L1.904 15.2334L2.57 12.7743L2.414 12.5207C1.75381 11.4597 1.40465 10.2314 1.407 8.97805C1.407 5.31315 4.364 2.32341 7.998 2.32341C8.86374 2.32184 9.72123 2.49349 10.521 2.82846C11.3208 3.16344 12.0471 3.65511 12.658 4.27513C13.271 4.89273 13.757 5.6269 14.0879 6.43529C14.4188 7.24368 14.5881 8.11028 14.586 8.98512C14.582 12.6632 11.625 15.6478 7.994 15.6478ZM11.609 10.6609C11.412 10.5608 10.439 10.0767 10.256 10.008C10.074 9.94228 9.941 9.90792 9.811 10.108C9.678 10.3072 9.298 10.761 9.184 10.8914C9.07 11.0258 8.952 11.0409 8.754 10.9419C8.557 10.8408 7.918 10.6306 7.162 9.94633C6.572 9.41569 6.177 8.75872 6.059 8.55961C5.945 8.35948 6.048 8.25235 6.147 8.15228C6.234 8.06334 6.344 7.91779 6.443 7.80257C6.543 7.68735 6.576 7.60245 6.641 7.46903C6.706 7.33359 6.675 7.21837 6.626 7.11831C6.576 7.01825 6.181 6.03076 6.014 5.63254C5.854 5.23936 5.691 5.29394 5.569 5.28889C5.455 5.28181 5.322 5.28181 5.189 5.28181C5.08856 5.28434 4.98973 5.30782 4.89869 5.35078C4.80766 5.39374 4.7264 5.45525 4.66 5.53146C4.478 5.73159 3.969 6.21573 3.969 7.20321C3.969 8.19069 4.679 9.13976 4.779 9.27419C4.877 9.40862 6.173 11.4291 8.162 12.2983C8.632 12.5055 9.002 12.6278 9.291 12.7208C9.766 12.8744 10.195 12.8512 10.537 12.8016C10.917 12.743 11.708 12.3165 11.875 11.8485C12.039 11.3795 12.039 10.9793 11.989 10.8954C11.94 10.8105 11.807 10.761 11.609 10.6609Z" fill="#8B63B5"/>
</svg>
