<svg width="379" height="294" viewBox="0 0 379 294" fill="none" xmlns="http://www.w3.org/2000/svg">
<path d="M340.541 270.29H315.471V270.486H340.541V270.29Z" fill="#EBEBEB"/>
<path d="M250.709 272.424H244.131V272.62H250.709V272.424Z" fill="#EBEBEB"/>
<path d="M314.714 263.008H300.189V263.204H314.714V263.008Z" fill="#EBEBEB"/>
<path d="M72.3999 264.326H39.7083V264.522H72.3999V264.326Z" fill="#EBEBEB"/>
<path d="M83.9355 264.326H79.1441V264.522H83.9355V264.326Z" fill="#EBEBEB"/>
<path d="M170.422 267.637H99.5129V267.834H170.422V267.637Z" fill="#EBEBEB"/>
<path d="M224.625 16.7316L223.982 18.0733C223.945 18.1504 223.89 18.2171 223.823 18.2676C223.756 18.3182 223.678 18.3511 223.596 18.3637L222.165 18.5834C222.07 18.5973 221.98 18.6386 221.906 18.7026C221.833 18.7666 221.778 18.8508 221.748 18.9456C221.718 19.0404 221.714 19.1419 221.737 19.2388C221.76 19.3356 221.809 19.4239 221.877 19.4935L222.914 20.545C222.974 20.6056 223.018 20.6798 223.044 20.7616C223.071 20.8434 223.078 20.9305 223.066 21.0158L222.816 22.4909C222.798 22.5906 222.807 22.6937 222.844 22.788C222.88 22.8822 222.942 22.9638 223.021 23.0231C223.1 23.0824 223.195 23.117 223.292 23.1228C223.39 23.1286 223.487 23.1054 223.573 23.0558L224.852 22.3575C224.927 22.3188 225.01 22.2986 225.094 22.2986C225.178 22.2986 225.261 22.3188 225.337 22.3575L226.616 23.0558C226.701 23.1054 226.799 23.1286 226.896 23.1228C226.994 23.117 227.088 23.0824 227.168 23.0231C227.247 22.9638 227.309 22.8822 227.345 22.788C227.381 22.6937 227.391 22.5906 227.373 22.4909L227.13 21.0158C227.114 20.9304 227.12 20.8422 227.146 20.7596C227.173 20.6771 227.219 20.6031 227.282 20.545L228.311 19.4935C228.38 19.4239 228.429 19.3356 228.452 19.2388C228.475 19.1419 228.471 19.0404 228.441 18.9456C228.411 18.8508 228.356 18.7666 228.282 18.7026C228.208 18.6386 228.119 18.5973 228.024 18.5834L226.593 18.3637C226.511 18.3511 226.433 18.3182 226.366 18.2676C226.298 18.2171 226.244 18.1504 226.207 18.0733L225.564 16.7316C225.523 16.6379 225.457 16.5584 225.374 16.5026C225.29 16.4468 225.193 16.4172 225.094 16.4172C224.995 16.4172 224.898 16.4468 224.815 16.5026C224.732 16.5584 224.666 16.6379 224.625 16.7316Z" fill="#F5F5F5"/>
<path d="M208.381 238.668L207.746 240.018C207.707 240.096 207.652 240.163 207.583 240.213C207.515 240.264 207.435 240.296 207.352 240.308L205.921 240.528C205.826 240.542 205.737 240.583 205.663 240.647C205.589 240.711 205.534 240.795 205.504 240.89C205.474 240.985 205.471 241.087 205.493 241.183C205.516 241.28 205.565 241.369 205.634 241.438L206.671 242.482C206.731 242.543 206.776 242.619 206.803 242.702C206.829 242.785 206.836 242.874 206.822 242.96L206.572 244.436C206.557 244.535 206.569 244.636 206.606 244.728C206.643 244.821 206.705 244.901 206.783 244.96C206.862 245.018 206.954 245.053 207.051 245.06C207.147 245.067 207.244 245.047 207.329 245.001L208.609 244.302C208.683 244.264 208.764 244.243 208.847 244.243C208.93 244.243 209.011 244.264 209.085 244.302L210.365 245.001C210.45 245.05 210.547 245.073 210.645 245.067C210.743 245.062 210.837 245.027 210.917 244.968C210.996 244.908 211.058 244.827 211.094 244.733C211.13 244.638 211.14 244.535 211.122 244.436L210.879 242.96C210.866 242.874 210.873 242.785 210.899 242.702C210.925 242.619 210.97 242.543 211.031 242.482L212.068 241.438C212.137 241.369 212.185 241.28 212.208 241.183C212.231 241.087 212.227 240.985 212.197 240.89C212.167 240.795 212.112 240.711 212.039 240.647C211.965 240.583 211.875 240.542 211.78 240.528L210.349 240.308C210.266 240.298 210.186 240.266 210.117 240.215C210.048 240.164 209.993 240.097 209.956 240.018L209.32 238.668C209.277 238.577 209.21 238.501 209.127 238.447C209.044 238.393 208.949 238.365 208.851 238.365C208.753 238.365 208.657 238.393 208.574 238.447C208.491 238.501 208.424 238.577 208.381 238.668Z" fill="#F0F0F0"/>
<path d="M321.193 154.076L320.55 155.418C320.514 155.496 320.459 155.564 320.392 155.616C320.325 155.667 320.247 155.702 320.164 155.716L318.733 155.928C318.638 155.943 318.549 155.986 318.476 156.051C318.402 156.115 318.348 156.2 318.318 156.295C318.288 156.39 318.284 156.492 318.307 156.589C318.33 156.686 318.378 156.775 318.446 156.846L319.483 157.889C319.543 157.951 319.587 158.026 319.612 158.11C319.637 158.193 319.642 158.282 319.627 158.368L319.384 159.843C319.366 159.943 319.376 160.046 319.412 160.14C319.448 160.234 319.51 160.316 319.589 160.375C319.669 160.435 319.763 160.469 319.861 160.475C319.959 160.481 320.056 160.457 320.141 160.408L321.421 159.71C321.495 159.667 321.578 159.645 321.663 159.645C321.748 159.645 321.831 159.667 321.905 159.71L323.184 160.408C323.27 160.457 323.367 160.481 323.465 160.475C323.563 160.469 323.657 160.435 323.736 160.375C323.816 160.316 323.877 160.234 323.913 160.14C323.95 160.046 323.959 159.943 323.941 159.843L323.699 158.368C323.683 158.282 323.688 158.193 323.713 158.11C323.738 158.026 323.783 157.951 323.843 157.889L324.88 156.846C324.948 156.775 324.996 156.686 325.019 156.589C325.041 156.492 325.037 156.39 325.008 156.295C324.978 156.2 324.923 156.115 324.85 156.051C324.777 155.986 324.687 155.943 324.592 155.928L323.161 155.716C323.079 155.702 323.001 155.667 322.933 155.616C322.866 155.564 322.812 155.496 322.775 155.418L322.132 154.076C322.091 153.982 322.025 153.903 321.942 153.847C321.859 153.791 321.762 153.761 321.663 153.761C321.564 153.761 321.467 153.791 321.383 153.847C321.3 153.903 321.234 153.982 321.193 154.076Z" fill="#F0F0F0"/>
<path d="M162.921 198.243L162.534 199.028C162.513 199.074 162.481 199.113 162.441 199.143C162.402 199.174 162.356 199.193 162.307 199.201L161.452 199.326C161.394 199.334 161.34 199.359 161.296 199.398C161.251 199.436 161.218 199.487 161.2 199.545C161.181 199.602 161.179 199.663 161.193 199.722C161.207 199.78 161.236 199.834 161.278 199.876L161.899 200.503C161.934 200.54 161.96 200.584 161.974 200.634C161.989 200.683 161.991 200.735 161.982 200.786L161.838 201.665C161.826 201.724 161.831 201.785 161.852 201.842C161.873 201.898 161.909 201.947 161.956 201.983C162.003 202.019 162.059 202.04 162.118 202.043C162.176 202.046 162.234 202.032 162.285 202.002L163.042 201.586C163.086 201.563 163.135 201.55 163.185 201.55C163.235 201.55 163.285 201.563 163.329 201.586L164.086 202.002C164.137 202.031 164.195 202.044 164.254 202.04C164.312 202.037 164.368 202.016 164.415 201.981C164.463 201.946 164.5 201.897 164.522 201.841C164.544 201.785 164.55 201.724 164.54 201.665L164.389 200.786C164.382 200.735 164.387 200.682 164.403 200.634C164.418 200.585 164.445 200.54 164.48 200.503L165.1 199.876C165.142 199.834 165.172 199.78 165.185 199.722C165.199 199.663 165.197 199.602 165.179 199.545C165.161 199.487 165.127 199.436 165.083 199.398C165.038 199.359 164.984 199.334 164.926 199.326L164.071 199.201C164.023 199.193 163.977 199.174 163.937 199.143C163.897 199.113 163.865 199.074 163.844 199.028L163.458 198.243C163.431 198.195 163.392 198.154 163.344 198.126C163.297 198.098 163.244 198.083 163.189 198.083C163.135 198.083 163.081 198.098 163.034 198.126C162.987 198.154 162.948 198.195 162.921 198.243Z" fill="#F0F0F0"/>
<path d="M249.543 198.244L249.157 199.028C249.136 199.074 249.104 199.113 249.064 199.143C249.024 199.174 248.978 199.193 248.93 199.201L248.075 199.326C248.017 199.335 247.963 199.359 247.918 199.398C247.874 199.437 247.84 199.487 247.822 199.545C247.804 199.602 247.802 199.663 247.816 199.722C247.829 199.78 247.859 199.834 247.901 199.876L248.521 200.503C248.556 200.54 248.583 200.585 248.598 200.634C248.614 200.683 248.619 200.735 248.612 200.786L248.461 201.665C248.452 201.723 248.459 201.783 248.48 201.838C248.502 201.893 248.538 201.94 248.584 201.975C248.631 202.01 248.685 202.031 248.742 202.036C248.799 202.04 248.856 202.029 248.907 202.002L249.664 201.586C249.709 201.563 249.758 201.55 249.808 201.55C249.858 201.55 249.907 201.563 249.952 201.586L250.709 202.002C250.759 202.032 250.817 202.046 250.876 202.043C250.934 202.04 250.99 202.019 251.037 201.983C251.085 201.948 251.121 201.898 251.142 201.842C251.163 201.785 251.167 201.724 251.155 201.665L251.012 200.786C251.002 200.735 251.005 200.683 251.019 200.634C251.034 200.584 251.06 200.54 251.095 200.503L251.715 199.876C251.757 199.834 251.787 199.78 251.8 199.722C251.814 199.663 251.812 199.602 251.794 199.545C251.776 199.487 251.742 199.437 251.698 199.398C251.653 199.359 251.599 199.335 251.541 199.326L250.686 199.201C250.638 199.193 250.592 199.174 250.552 199.143C250.512 199.113 250.48 199.074 250.459 199.028L250.073 198.244C250.045 198.196 250.006 198.158 249.96 198.131C249.914 198.104 249.861 198.089 249.808 198.089C249.755 198.089 249.702 198.104 249.656 198.131C249.61 198.158 249.571 198.196 249.543 198.244Z" fill="#F5F5F5"/>
<path d="M58.8358 17.9557L58.4497 18.7403C58.4287 18.7879 58.3959 18.8289 58.3547 18.8592C58.3135 18.8895 58.2654 18.9081 58.2151 18.9129L57.3597 19.0463C57.3028 19.0557 57.2495 19.0814 57.2058 19.1205C57.1622 19.1596 57.1299 19.2105 57.1126 19.2675C57.0953 19.3246 57.0937 19.3855 57.1079 19.4434C57.1222 19.5014 57.1517 19.5541 57.1932 19.5956L57.8063 20.2154C57.8423 20.2515 57.8694 20.2959 57.8852 20.3451C57.901 20.3943 57.9051 20.4467 57.8972 20.4979L57.7534 21.3846C57.7444 21.4431 57.7512 21.503 57.7731 21.5578C57.7949 21.6125 57.8309 21.66 57.8771 21.6949C57.9233 21.7298 57.9779 21.7508 58.0348 21.7555C58.0918 21.7603 58.1489 21.7487 58.1999 21.722L58.9569 21.3061C59.0014 21.2827 59.0507 21.2704 59.1007 21.2704C59.1507 21.2704 59.1999 21.2827 59.2445 21.3061L60.0014 21.722C60.0524 21.7487 60.1096 21.7603 60.1665 21.7555C60.2235 21.7508 60.2781 21.7298 60.3243 21.6949C60.3705 21.66 60.4065 21.6125 60.4283 21.5578C60.4501 21.503 60.4569 21.4431 60.448 21.3846L60.3042 20.4979C60.2962 20.4467 60.3004 20.3943 60.3162 20.3451C60.332 20.2959 60.359 20.2515 60.395 20.2154L61.0157 19.5956C61.0574 19.5535 61.0868 19.5002 61.1007 19.4417C61.1145 19.3832 61.1122 19.3218 61.0941 19.2646C61.0759 19.2074 61.0427 19.1565 60.998 19.118C60.9534 19.0794 60.8992 19.0545 60.8416 19.0463L59.9863 18.9129C59.9362 18.9073 59.8884 18.8885 59.8473 18.8583C59.8062 18.828 59.7733 18.7874 59.7516 18.7403L59.3732 17.9557C59.3476 17.9047 59.3091 17.8619 59.2617 17.8321C59.2143 17.8022 59.1599 17.7864 59.1045 17.7864C59.049 17.7864 58.9946 17.8022 58.9473 17.8321C58.8999 17.8619 58.8613 17.9047 58.8358 17.9557Z" fill="#F5F5F5"/>
<path d="M65.4135 166.042L64.7474 167.431C64.71 167.511 64.6536 167.581 64.5835 167.633C64.5134 167.685 64.4318 167.718 64.3462 167.729L62.8324 167.956C62.7335 167.97 62.6403 168.013 62.5637 168.079C62.487 168.145 62.43 168.232 62.3992 168.331C62.3683 168.429 62.3649 168.535 62.3893 168.635C62.4137 168.735 62.465 168.826 62.5372 168.898L63.6044 169.981C63.667 170.044 63.7135 170.122 63.74 170.208C63.7664 170.294 63.7718 170.386 63.7558 170.475L63.506 172.044C63.4932 172.143 63.5062 172.244 63.5436 172.336C63.5811 172.427 63.6416 172.507 63.719 172.566C63.7963 172.626 63.8876 172.662 63.9832 172.673C64.0789 172.683 64.1755 172.666 64.263 172.625L65.58 171.903C65.6568 171.86 65.7426 171.838 65.8298 171.838C65.9169 171.838 66.0027 171.86 66.0796 171.903L67.4042 172.625C67.4916 172.666 67.5882 172.683 67.6839 172.673C67.7796 172.662 67.8709 172.626 67.9482 172.566C68.0255 172.507 68.0861 172.427 68.1235 172.336C68.161 172.244 68.174 172.143 68.1611 172.044L67.9038 170.475C67.8894 170.385 67.8963 170.293 67.924 170.207C67.9518 170.121 67.9994 170.043 68.0627 169.981L69.13 168.898C69.2022 168.826 69.2534 168.735 69.2778 168.635C69.3022 168.535 69.2988 168.429 69.268 168.331C69.2371 168.232 69.1801 168.145 69.1035 168.079C69.0268 168.013 68.9337 167.97 68.8348 167.956L67.3209 167.729C67.2353 167.718 67.1537 167.685 67.0836 167.633C67.0135 167.581 66.9572 167.511 66.9198 167.431L66.2612 166.042C66.211 165.975 66.1467 165.921 66.0732 165.884C65.9998 165.846 65.9191 165.827 65.8374 165.827C65.7556 165.827 65.6749 165.846 65.6015 165.884C65.528 165.921 65.4637 165.975 65.4135 166.042Z" fill="#F0F0F0"/>
<path d="M146.495 35.9947C146.495 36.2014 146.554 36.4035 146.665 36.5752C146.776 36.747 146.934 36.8808 147.118 36.9595C147.303 37.0383 147.506 37.0585 147.701 37.0176C147.897 36.9767 148.076 36.8765 148.216 36.7298C148.357 36.583 148.452 36.3963 148.49 36.1934C148.528 35.9905 148.507 35.7804 148.43 35.5898C148.352 35.3993 148.222 35.2368 148.056 35.1231C147.889 35.0094 147.694 34.9495 147.494 34.9511C147.363 34.9511 147.232 34.9781 147.11 35.0307C146.989 35.0832 146.878 35.1602 146.785 35.2572C146.692 35.3542 146.619 35.4693 146.569 35.5959C146.519 35.7225 146.494 35.858 146.495 35.9947Z" fill="#F0F0F0"/>
<path d="M118.603 239.304C119.159 239.304 119.609 238.837 119.609 238.26C119.609 237.684 119.159 237.217 118.603 237.217C118.047 237.217 117.596 237.684 117.596 238.26C117.596 238.837 118.047 239.304 118.603 239.304Z" fill="#F5F5F5"/>
<path d="M81.0288 62.0841C75.6958 60.4303 70.5135 58.2931 65.5421 55.6971C66.3589 59.0585 68.0007 62.1438 70.3078 64.653C72.615 67.1622 75.5091 69.0101 78.7089 70.017C81.9086 71.0239 85.3053 71.1557 88.5687 70.3995C91.8321 69.6432 94.8514 68.0248 97.333 65.7013C91.8063 64.9942 86.3505 63.7838 81.0288 62.0841Z" fill="#F5F5F5"/>
<path d="M84.3365 49.2866C91.2094 51.4522 98.9755 50.0712 103.623 52.8332C104.07 48.2044 102.954 43.5583 100.465 39.6875C97.9758 35.8166 94.2684 32.9608 89.9751 31.6072C85.6817 30.2536 81.0683 30.486 76.9218 32.2649C72.7753 34.0438 69.3526 37.2588 67.2376 41.3617C72.5664 41.7775 77.4637 47.121 84.3365 49.2866Z" fill="#F5F5F5"/>
<path d="M55.1496 41.6284C54.2791 44.5865 66.6473 51.099 82.7698 56.1757C98.8923 61.2523 112.661 62.9786 113.524 60.0283C114.387 57.078 102.026 50.5576 85.9034 45.4967C69.7809 40.4357 56.0125 38.6781 55.1496 41.6284Z" fill="#F5F5F5"/>
<path d="M296.805 119.591C294.434 129.081 289.59 137.712 282.804 144.539C276.018 151.367 267.55 156.128 258.329 158.301C249.107 160.475 239.487 159.977 230.52 156.863C221.553 153.748 213.585 148.137 207.488 140.643C200.283 131.779 196.051 120.728 195.431 109.155C195.234 105.516 195.404 101.866 195.938 98.2641C196.206 96.4285 196.564 94.6083 197.012 92.8108C200.422 79.2943 208.802 67.6994 220.358 60.5095C231.914 53.3195 245.726 51.1064 258.837 54.344C271.947 57.5816 283.313 66.0126 290.501 77.8311C297.688 89.6496 300.125 103.916 297.29 117.574C297.131 118.241 296.972 118.916 296.805 119.591Z" fill="#EBEBEB"/>
<path d="M324.948 73.1711C324.56 74.7234 323.768 76.1352 322.658 77.2521C321.548 78.3689 320.163 79.1478 318.655 79.5035C317.147 79.8591 315.573 79.7778 314.106 79.2685C312.64 78.7591 311.336 77.8414 310.339 76.6157C309.163 75.1658 308.473 73.3597 308.371 71.4684C308.339 70.8733 308.367 70.2763 308.454 69.6873C308.498 69.3863 308.556 69.0877 308.629 68.7928C309.181 66.5766 310.551 64.6736 312.442 63.4927C314.334 62.3119 316.597 61.9474 318.745 62.4776C320.894 63.0079 322.755 64.3905 323.931 66.3285C325.106 68.2664 325.501 70.6049 325.031 72.8416C325.001 72.9593 324.978 73.0613 324.948 73.1711Z" fill="#EBEBEB"/>
<path d="M297.267 117.559L294.913 114.475L291.416 123.961L286.405 116.782L283.718 105.946L272.213 98.7192L273.628 101.936L280.009 104.949L283.037 111.226L273.469 110.858L263.41 101.207L269.617 111.862L274.491 115.848L270.298 118.469L262.918 128.975L263.531 133.502C263.531 133.502 257.476 138.03 256.817 138.21C256.159 138.391 243.344 147.085 243.344 147.085L248.271 129.399L248.143 115.958L236.032 116.648L226.169 107.947L232.8 93.4542L237.758 90.7472L242.806 92.1046L259.671 98.5309L259.595 95.3531L250.058 85.9373L243.927 84.7839L238.999 87.0829L236.161 86.2983L241.081 79.8956L245.622 77.8084L255.909 75.0151L263.592 77.8947L275.301 80.0211C275.301 80.0211 284.914 77.4239 289.547 76.1528C293.486 82.1457 296.202 88.9095 297.53 96.0295C298.857 103.15 298.768 110.476 297.267 117.559Z" fill="#FAFAFA"/>
<path d="M261.139 157.575C251.574 160.418 241.419 160.332 231.9 157.327C222.381 154.323 213.903 148.529 207.488 140.643L214.8 144.652L221.446 150.38L238.984 155.088L253.865 155.143L261.139 157.575Z" fill="#FAFAFA"/>
<path d="M234.117 57.643L228.773 58.8278L231.657 63.4337L229.167 73.3987L250.807 69.6167L251.746 65.8582L244.729 63.6298L234.117 57.643Z" fill="#FAFAFA"/>
<path d="M226.502 67.9454L222.967 75.6977L214.967 79.9505L206.27 83.6932L202.099 88.1736L198.678 87.2555C203.161 74.9431 211.884 64.788 223.164 58.7494L226.502 67.9454Z" fill="#FAFAFA"/>
<path d="M216.92 119.591L210.667 124.299L210.41 129.156L209.714 131.925L209.343 136.594L207.458 135.268L203.863 128.057L200.835 116.656L196.74 110.214L195.393 109.116C195.197 105.477 195.367 101.827 195.9 98.2249L197.489 100.226L204.521 99.3626L210.758 101.034L212.121 107.013L214.588 112.372L220.265 115.644L216.92 119.591Z" fill="#FAFAFA"/>
<path d="M189.231 293.099C270.285 293.099 335.991 289.122 335.991 284.217C335.991 279.312 270.285 275.335 189.231 275.335C108.178 275.335 42.4711 279.312 42.4711 284.217C42.4711 289.122 108.178 293.099 189.231 293.099Z" fill="#F5F5F5" fill-opacity="0.5"/>
<path d="M173.987 90.2215C176.856 88.3226 178.528 84.4622 180.799 81.8886C185.341 76.7805 192.357 68.4398 193.417 63.7005L175.796 57.4233L169.96 72.1747C168.726 75.5957 163.231 80.5939 160.18 82.2181C158.394 83.1832 156.441 84.0385 154.458 84.8938C150.477 86.5572 146.2 88.0323 142.06 89.5153L143.104 97.3068C145.515 97.3294 147.925 97.2247 150.325 96.993C152.71 96.7576 155.102 96.4437 157.493 95.9729C159.95 95.5126 162.376 94.8968 164.76 94.129C167.212 93.3601 171.459 91.8849 173.987 90.2215Z" fill="#73499E"/>
<path opacity="0.8" d="M173.987 90.2215C176.856 88.3226 178.528 84.4622 180.799 81.8886C185.341 76.7805 192.357 68.4398 193.417 63.7005L175.796 57.4233L169.96 72.1747C168.726 75.5957 163.231 80.5939 160.18 82.2181C158.394 83.1832 156.441 84.0385 154.458 84.8938C150.477 86.5572 146.2 88.0323 142.06 89.5153L143.104 97.3068C145.515 97.3294 147.925 97.2247 150.325 96.993C152.71 96.7576 155.102 96.4437 157.493 95.9729C159.95 95.5126 162.376 94.8968 164.76 94.129C167.212 93.3601 171.459 91.8849 173.987 90.2215Z" fill="white"/>
<path d="M155.594 97.3931L152.399 84.9094C152.399 84.9094 133.892 88.4089 133.302 93.721C132.697 99.2135 145.579 99.0801 155.594 97.3931Z" fill="#263238"/>
<path d="M142.302 90.8884L144.981 86.9652C144.981 86.9652 135.58 85.7333 135.331 87.2947C135.02 89.4368 137.813 90.8963 142.302 90.8884Z" fill="#263238"/>
<path d="M227.57 174.453C227.374 174.454 227.184 174.385 227.032 174.257C223.376 171.228 211.773 160.502 215.678 149.776C218.872 140.972 226.623 133.557 235.888 130.411C239.447 129.308 243.084 128.495 246.765 127.979C249.255 127.563 251.829 127.131 254.289 126.519C265.605 123.702 271.305 115.958 269.163 106.307C268.186 101.936 265.575 98.4054 262.804 94.6626C260.602 91.6966 258.339 88.6287 256.969 85.1135C256.969 85.1135 256.969 85.0507 256.969 85.0193C255.674 80.2251 257.514 75.6036 259.3 71.1625C259.716 70.1189 260.11 69.1303 260.473 68.1338C261.987 63.8731 263.387 59.2908 263.153 54.6614C262.873 49.1689 259.323 43.237 254.115 39.6355C245.978 33.9939 230.961 28.9565 224.595 36.0418C224.053 36.6801 223.547 37.3508 223.081 38.0505C222.443 38.9931 221.729 39.8777 220.946 40.6947C219.643 41.9275 218.088 42.8388 216.397 43.3606C214.706 43.8823 212.923 44.001 211.182 43.7078C209.375 43.3891 207.664 42.6428 206.18 41.5269C204.697 40.411 203.482 38.9556 202.629 37.2737C202.579 37.1687 202.549 37.0544 202.541 36.9375C202.534 36.8205 202.549 36.7031 202.586 36.5922C202.622 36.4813 202.68 36.379 202.755 36.2913C202.83 36.2035 202.921 36.1321 203.022 36.081C203.124 36.0287 203.235 35.9978 203.349 35.99C203.462 35.9822 203.576 35.9977 203.683 36.0356C203.791 36.0735 203.89 36.1331 203.976 36.2109C204.061 36.2887 204.131 36.3832 204.181 36.489C204.88 37.8935 205.881 39.1125 207.108 40.0518C208.334 40.9911 209.752 41.6256 211.253 41.9062C212.753 42.1868 214.296 42.106 215.761 41.6701C217.227 41.2342 218.576 40.4548 219.705 39.3922C220.414 38.646 221.062 37.8403 221.643 36.9834C222.153 36.2323 222.704 35.5119 223.293 34.8256C231.12 26.1317 248.067 33.3112 255.084 38.1446C260.723 42.0679 264.576 48.502 264.886 54.5673C265.136 59.5262 263.698 64.3204 262.093 68.7615C261.73 69.7894 261.336 70.8329 260.905 71.853C259.239 76.0116 257.514 80.3036 258.634 84.4936C259.913 87.7656 262.1 90.7158 264.22 93.5719C266.975 97.299 269.829 101.152 270.888 105.907C273.227 116.46 266.892 125.232 254.736 128.261C252.215 128.889 249.611 129.328 247.091 129.744C243.505 130.243 239.962 131.031 236.494 132.098C227.713 135.072 220.379 142.087 217.359 150.388C213.869 159.992 224.761 170.004 228.183 172.845C228.314 172.962 228.407 173.118 228.451 173.292C228.495 173.466 228.488 173.65 228.43 173.819C228.372 173.989 228.266 174.136 228.126 174.242C227.986 174.348 227.819 174.408 227.645 174.414L227.57 174.453Z" fill="#73499E"/>
<path opacity="0.7" d="M227.57 174.453C227.374 174.454 227.184 174.385 227.032 174.257C223.376 171.228 211.773 160.502 215.678 149.776C218.872 140.972 226.623 133.557 235.888 130.411C239.447 129.308 243.084 128.495 246.765 127.979C249.255 127.563 251.829 127.131 254.289 126.519C265.605 123.702 271.305 115.958 269.163 106.307C268.186 101.936 265.575 98.4054 262.804 94.6626C260.602 91.6966 258.339 88.6287 256.969 85.1135C256.969 85.1135 256.969 85.0507 256.969 85.0193C255.674 80.2251 257.514 75.6036 259.3 71.1625C259.716 70.1189 260.11 69.1303 260.473 68.1338C261.987 63.8731 263.387 59.2908 263.153 54.6614C262.873 49.1689 259.323 43.237 254.115 39.6355C245.978 33.9939 230.961 28.9565 224.595 36.0418C224.053 36.6801 223.547 37.3508 223.081 38.0505C222.443 38.9931 221.729 39.8777 220.946 40.6947C219.643 41.9275 218.088 42.8388 216.397 43.3606C214.706 43.8823 212.923 44.001 211.182 43.7078C209.375 43.3891 207.664 42.6428 206.18 41.5269C204.697 40.411 203.482 38.9556 202.629 37.2737C202.579 37.1687 202.549 37.0544 202.541 36.9375C202.534 36.8205 202.549 36.7031 202.586 36.5922C202.622 36.4813 202.68 36.379 202.755 36.2913C202.83 36.2035 202.921 36.1321 203.022 36.081C203.124 36.0287 203.235 35.9978 203.349 35.99C203.462 35.9822 203.576 35.9977 203.683 36.0356C203.791 36.0735 203.89 36.1331 203.976 36.2109C204.061 36.2887 204.131 36.3832 204.181 36.489C204.88 37.8935 205.881 39.1125 207.108 40.0518C208.334 40.9911 209.752 41.6256 211.253 41.9062C212.753 42.1868 214.296 42.106 215.761 41.6701C217.227 41.2342 218.576 40.4548 219.705 39.3922C220.414 38.646 221.062 37.8403 221.643 36.9834C222.153 36.2323 222.704 35.5119 223.293 34.8256C231.12 26.1317 248.067 33.3112 255.084 38.1446C260.723 42.0679 264.576 48.502 264.886 54.5673C265.136 59.5262 263.698 64.3204 262.093 68.7615C261.73 69.7894 261.336 70.8329 260.905 71.853C259.239 76.0116 257.514 80.3036 258.634 84.4936C259.913 87.7656 262.1 90.7158 264.22 93.5719C266.975 97.299 269.829 101.152 270.888 105.907C273.227 116.46 266.892 125.232 254.736 128.261C252.215 128.889 249.611 129.328 247.091 129.744C243.505 130.243 239.962 131.031 236.494 132.098C227.713 135.072 220.379 142.087 217.359 150.388C213.869 159.992 224.761 170.004 228.183 172.845C228.314 172.962 228.407 173.118 228.451 173.292C228.495 173.466 228.488 173.65 228.43 173.819C228.372 173.989 228.266 174.136 228.126 174.242C227.986 174.348 227.819 174.408 227.645 174.414L227.57 174.453Z" fill="white"/>
<path opacity="0.2" d="M176.364 76.6314C175.387 78.3184 175.168 83.6932 175.667 88.7777C177.605 86.7534 179.013 83.9051 180.814 81.865L181.193 81.4413C179.194 78.5224 176.924 75.5957 176.364 76.6314Z" fill="black"/>
<path d="M175.781 57.3605C175.781 57.3605 171.239 76.5765 184.152 108.362L218.751 101.991C218.161 97.1028 210.728 74.9209 211.939 51.1618C208.031 50.7013 204.085 50.7013 200.176 51.1618C195.225 51.8106 190.309 52.7193 185.447 53.8846C182.151 54.8112 178.922 55.9727 175.781 57.3605Z" fill="#73499E"/>
<path opacity="0.8" d="M175.781 57.3605C175.781 57.3605 171.239 76.5765 184.152 108.362L218.751 101.991C218.161 97.1028 210.728 74.9209 211.939 51.1618C208.031 50.7013 204.085 50.7013 200.176 51.1618C195.225 51.8106 190.309 52.7193 185.447 53.8846C182.151 54.8112 178.922 55.9727 175.781 57.3605Z" fill="white"/>
<path opacity="0.2" d="M207.935 69.1067C209.445 71.0678 211.172 72.8376 213.082 74.3795C212.855 72.7396 212.643 71.0605 212.469 69.3499L207.935 69.1067Z" fill="black"/>
<path d="M184.152 108.402C184.152 108.402 166.622 129.509 168.053 147.728C169.566 166.685 188.595 197.749 188.595 197.749L200.161 191.739C200.161 191.739 192.592 159.09 186.718 149.603C193.122 138.548 201.577 125.35 207.413 105.114C196.725 107.091 184.152 108.402 184.152 108.402Z" fill="#73499E"/>
<path opacity="0.8" d="M184.152 108.402C184.152 108.402 166.622 129.509 168.053 147.728C169.566 166.685 188.595 197.749 188.595 197.749L200.161 191.739C200.161 191.739 192.592 159.09 186.718 149.603C193.122 138.548 201.577 125.35 207.413 105.114C196.725 107.091 184.152 108.402 184.152 108.402Z" fill="white"/>
<path opacity="0.2" d="M200.585 119.45C197.406 121.937 195.468 129.25 195.415 134.358C198.102 129.371 200.515 124.231 202.644 118.963C202.287 118.888 201.919 118.892 201.564 118.976C201.209 119.06 200.875 119.221 200.585 119.45Z" fill="black"/>
<path d="M188.906 196.619L198.746 190.397C198.903 190.318 199.081 190.298 199.25 190.339C199.42 190.381 199.571 190.481 199.677 190.625L203.878 198.142C204.013 198.291 204.115 198.47 204.175 198.665C204.236 198.86 204.255 199.066 204.229 199.27C204.204 199.473 204.136 199.668 204.029 199.84C203.922 200.013 203.78 200.159 203.613 200.268C200.714 201.837 200.494 201.696 196.884 203.752C194.666 205.023 190.23 207.903 187.165 209.652C184.099 211.402 181.995 208.271 182.903 207.047C186.272 202.536 187.203 200.77 187.997 197.82C188.064 197.567 188.179 197.331 188.335 197.125C188.491 196.919 188.685 196.747 188.906 196.619Z" fill="#73499E"/>
<path opacity="0.8" d="M188.906 196.619L198.746 190.397C198.903 190.318 199.081 190.298 199.25 190.339C199.42 190.381 199.571 190.481 199.677 190.625L203.878 198.142C204.013 198.291 204.115 198.47 204.175 198.665C204.236 198.86 204.255 199.066 204.229 199.27C204.204 199.473 204.136 199.668 204.029 199.84C203.922 200.013 203.78 200.159 203.613 200.268C200.714 201.837 200.494 201.696 196.884 203.752C194.666 205.023 190.23 207.903 187.165 209.652C184.099 211.402 181.995 208.271 182.903 207.047C186.272 202.536 187.203 200.77 187.997 197.82C188.064 197.567 188.179 197.331 188.335 197.125C188.491 196.919 188.685 196.747 188.906 196.619Z" fill="white"/>
<path d="M265.931 208.42L208.268 269.63L198.345 248.775L245.584 198.628L265.931 208.42Z" fill="#73499E"/>
<path opacity="0.4" d="M265.931 208.42L208.268 269.63L198.345 248.775L245.584 198.628L265.931 208.42Z" fill="black"/>
<path d="M259.179 222.481L221.673 262.302L204.877 238.268L235.608 205.651L259.179 222.481Z" fill="#73499E"/>
<path opacity="0.3" d="M259.179 222.481L221.673 262.302L204.877 238.268L235.608 205.651L259.179 222.481Z" fill="black"/>
<path d="M153.209 209.778C153.209 209.778 167.969 226.075 180.648 240.253C182.414 242.279 183.637 244.748 184.196 247.416C184.755 250.084 184.631 252.857 183.834 255.46C180.905 265.66 185.197 283.652 185.197 283.652C171.171 271.255 133.506 260.411 153.209 209.778Z" fill="#73499E"/>
<path opacity="0.3" d="M153.209 209.778C153.209 209.778 167.969 226.075 180.648 240.253C182.414 242.279 183.637 244.748 184.196 247.416C184.755 250.084 184.631 252.857 183.834 255.46C180.905 265.66 185.197 283.652 185.197 283.652C171.171 271.255 133.506 260.411 153.209 209.778Z" fill="black"/>
<path d="M206.905 152.781C206.905 152.781 222.975 167.689 236.948 180.495C238.943 182.276 241.353 183.484 243.938 184.001C246.524 184.517 249.195 184.323 251.685 183.437C261.419 180.157 278.934 184.183 278.934 184.183C266.619 169.941 255.273 131.164 206.905 152.781Z" fill="#73499E"/>
<path opacity="0.3" d="M206.905 152.781C206.905 152.781 222.975 167.689 236.948 180.495C238.943 182.276 241.353 183.484 243.938 184.001C246.524 184.517 249.195 184.323 251.685 183.437C261.419 180.157 278.934 184.183 278.934 184.183C266.619 169.941 255.273 131.164 206.905 152.781Z" fill="black"/>
<path d="M170.081 113.494C138.479 84.9723 104.365 76.1058 90.6039 90.7394C76.843 105.373 86.2062 140.502 114.455 172.57L184.546 252.133C185.923 253.694 187.593 254.948 189.454 255.817C191.315 256.686 193.327 257.153 195.367 257.188C197.408 257.223 199.434 256.826 201.322 256.022C203.209 255.218 204.919 254.022 206.345 252.51L249.361 206.851C250.787 205.337 251.9 203.537 252.631 201.561C253.362 199.586 253.696 197.476 253.614 195.362C253.531 193.248 253.032 191.174 252.149 189.266C251.265 187.359 250.015 185.658 248.476 184.269L170.081 113.494Z" fill="#73499E"/>
<path opacity="0.1" d="M207.239 240.489C207.627 240.689 207.964 240.982 208.223 241.343C208.482 241.703 208.655 242.122 208.729 242.565C208.803 243.009 208.775 243.464 208.647 243.893C208.52 244.323 208.297 244.716 207.995 245.04C203.378 249.983 194.636 248.728 188.876 242.286L119.337 164.606C105.364 148.999 95.4256 133.22 90.2785 119.967C88.7646 116.044 94.0177 113.29 96.2052 116.829C103.176 128.12 113.569 141.6 126.581 155.653L199.775 234.596C201.933 236.973 204.454 238.965 207.239 240.489Z" fill="white"/>
<path opacity="0.1" d="M119.67 84.9565C112.6 84.6898 103.721 88.8798 96.4247 96.6164C89.1279 104.353 85.313 113.659 85.7293 120.987C82.8757 108.158 84.3669 97.3382 90.5964 90.7158C96.8259 84.0934 107.234 82.2966 119.67 84.9565Z" fill="black"/>
<path opacity="0.3" d="M144.106 172.203C158.931 171.897 170.71 159.191 170.415 143.823C170.12 128.455 157.862 116.245 143.038 116.551C128.213 116.857 116.434 129.563 116.729 144.93C117.024 160.298 129.281 172.508 144.106 172.203Z" fill="black"/>
<path d="M163.825 160.616C172.97 148.516 170.922 131.023 159.25 121.543C147.578 112.063 130.703 114.186 121.558 126.285C112.412 138.384 114.461 155.878 126.132 165.358C137.804 174.838 154.679 172.715 163.825 160.616Z" fill="white"/>
<path opacity="0.7" d="M160.998 160.015C169.813 149.533 168.761 133.628 158.649 124.49C148.537 115.352 133.194 116.442 124.379 126.924C115.564 137.407 116.615 153.312 126.727 162.45C136.839 171.588 152.183 170.498 160.998 160.015Z" fill="#73499E"/>
<g opacity="0.2">
<path d="M125.316 125.852C123.003 128.287 121.2 131.191 120.018 134.381L131.644 165.877C136.341 168.351 141.685 169.177 146.874 168.231L129.843 122.078C128.194 123.143 126.674 124.41 125.316 125.852Z" fill="white"/>
<path d="M131.629 121.034L148.88 167.791C151.534 167.071 154.053 165.891 156.328 164.3L139.448 118.469C136.718 118.847 134.072 119.716 131.629 121.034Z" fill="white"/>
</g>
<path d="M233.807 198.816L238.946 188.184C239.039 188.033 239.179 187.92 239.343 187.863C239.507 187.806 239.685 187.808 239.847 187.871L247.113 191.401C247.304 191.454 247.481 191.549 247.632 191.681C247.783 191.813 247.904 191.978 247.987 192.164C248.069 192.35 248.111 192.552 248.109 192.757C248.107 192.961 248.062 193.163 247.976 193.347C246.341 196.266 246.213 196.784 244.192 200.495C242.965 202.779 240.687 207.636 238.992 210.79C237.296 213.944 233.913 212.446 234.056 210.916C234.594 205.258 234.458 203.234 233.632 200.331C233.562 200.079 233.541 199.815 233.57 199.555C233.6 199.295 233.681 199.044 233.807 198.816Z" fill="#73499E"/>
<path opacity="0.8" d="M233.807 198.816L238.946 188.184C239.039 188.033 239.179 187.92 239.343 187.863C239.507 187.806 239.685 187.808 239.847 187.871L247.113 191.401C247.304 191.454 247.481 191.549 247.632 191.681C247.783 191.813 247.904 191.978 247.987 192.164C248.069 192.35 248.111 192.552 248.109 192.757C248.107 192.961 248.062 193.163 247.976 193.347C246.341 196.266 246.213 196.784 244.192 200.495C242.965 202.779 240.687 207.636 238.992 210.79C237.296 213.944 233.913 212.446 234.056 210.916C234.594 205.258 234.458 203.234 233.632 200.331C233.562 200.079 233.541 199.815 233.57 199.555C233.6 199.295 233.681 199.044 233.807 198.816Z" fill="white"/>
<path d="M196.414 106.142C196.414 106.142 196.483 139.536 203.408 155.676C210.993 173.394 234.276 200.856 234.276 200.856L243.056 191.715C243.056 191.715 231.982 166.607 221.703 153.181C221.491 136.641 223.217 118.594 218.978 103.6C211.529 105.028 203.986 105.878 196.414 106.142Z" fill="#73499E"/>
<path opacity="0.8" d="M196.414 106.142C196.414 106.142 196.483 139.536 203.408 155.676C210.993 173.394 234.276 200.856 234.276 200.856L243.056 191.715C243.056 191.715 231.982 166.607 221.703 153.181C221.491 136.641 223.217 118.594 218.978 103.6C211.529 105.028 203.986 105.878 196.414 106.142Z" fill="white"/>
<path d="M217.858 106.158C201.804 110.002 189.716 110.395 184.788 110.355C184.476 110.356 184.167 110.29 183.881 110.162C183.594 110.033 183.337 109.845 183.123 109.609C182.91 109.372 182.747 109.093 182.642 108.788C182.538 108.483 182.495 108.159 182.517 107.837C182.545 107.225 182.801 106.648 183.232 106.229C183.663 105.81 184.235 105.582 184.826 105.593C195.61 105.485 206.347 104.119 216.836 101.52C217.127 101.448 217.429 101.436 217.724 101.485C218.019 101.534 218.302 101.643 218.557 101.805C218.812 101.968 219.033 102.181 219.208 102.432C219.383 102.684 219.508 102.968 219.576 103.27C219.653 103.577 219.668 103.896 219.622 104.21C219.577 104.523 219.47 104.823 219.31 105.093C219.15 105.362 218.938 105.596 218.689 105.779C218.439 105.962 218.157 106.091 217.858 106.158Z" fill="#263238"/>
<path d="M235.661 71.343C234.299 68.1024 232.406 65.9525 229.855 63.677C224.807 59.1496 216.481 52.1349 211.939 51.1933L206.421 69.656L220.924 75.2034C223.792 77.322 224.436 78.7186 225.284 82.1632C225.791 84.1876 226.162 86.3454 226.525 88.5424C227.199 92.9286 227.668 97.5972 228.114 102.101L235.684 102.776C236.242 100.345 236.679 97.8856 236.993 95.408C237.304 92.9521 237.538 90.4648 237.629 87.9382C237.747 85.3541 237.706 82.7648 237.508 80.1859C237.357 77.1542 236.733 74.1678 235.661 71.343Z" fill="#73499E"/>
<path opacity="0.8" d="M235.661 71.343C234.299 68.1024 232.406 65.9525 229.855 63.677C224.807 59.1496 216.481 52.1349 211.939 51.1933L206.421 69.656L220.924 75.2034C223.792 77.322 224.436 78.7186 225.284 82.1632C225.791 84.1876 226.162 86.3454 226.525 88.5424C227.199 92.9286 227.668 97.5972 228.114 102.101L235.684 102.776C236.242 100.345 236.679 97.8856 236.993 95.408C237.304 92.9521 237.538 90.4648 237.629 87.9382C237.747 85.3541 237.706 82.7648 237.508 80.1859C237.357 77.1542 236.733 74.1678 235.661 71.343Z" fill="white"/>
<path d="M237.962 90.5903H226.018C226.018 90.5903 225.193 110.081 230.052 111.854C235.078 113.714 237.319 101.089 237.962 90.5903Z" fill="#263238"/>
<path d="M229.394 102.132L226.321 98.5544C226.321 98.5544 223.452 106.691 225.2 107.696C226.949 108.7 228.402 106.699 229.394 102.132Z" fill="#263238"/>
<path opacity="0.2" d="M200.139 51.1776C195.2 51.8224 190.297 52.7259 185.447 53.8846C183.592 54.3868 181.806 54.9909 180.269 55.548C183.572 56.7978 187.127 57.1595 190.601 56.5995C191.842 56.3864 193.054 56.0202 194.212 55.5088C197.542 54.6428 200.661 53.0661 203.371 50.8794C202.303 50.9343 201.213 51.0285 200.139 51.1776Z" fill="black"/>
<path d="M194.265 36.6852C194.189 41.1498 194.734 49.2395 198.14 51.5464C198.14 51.5464 198.186 53.5001 191.146 54.7791C185.401 55.8227 185.204 53.9317 185.204 53.9317C189.648 51.923 188.913 48.3764 187.528 45.175L194.265 36.6852Z" fill="#FFB573"/>
<path opacity="0.2" d="M191.502 40.1454L187.521 45.175C187.85 45.9165 188.119 46.6856 188.323 47.474C190.056 46.8855 192.145 44.4218 192.002 42.4601C191.969 41.6639 191.8 40.8801 191.502 40.1454Z" fill="black"/>
<path d="M181.102 36.1987C179.066 33.3347 176.765 29.184 177.756 27.1282C178.748 25.0724 182.881 23.8719 184.758 25.3784C187.112 27.2851 185.394 33.2092 181.102 36.1987Z" fill="#263238"/>
<path d="M194.53 30.5885C194.704 36.5283 195.097 40.0042 192.486 43.3076C188.558 48.2822 181.284 46.2422 179.399 40.475C177.711 35.2964 177.718 26.4142 183.085 23.5267C184.268 22.8869 185.59 22.5715 186.924 22.6104C188.258 22.6492 189.56 23.0411 190.707 23.7488C191.854 24.4564 192.807 25.4563 193.476 26.6534C194.145 27.8506 194.508 29.2052 194.53 30.5885Z" fill="#FFB573"/>
<path d="M194.333 36.1359C191.79 33.782 188.739 30.1491 189.322 27.9286C189.905 25.708 193.72 23.6836 195.847 24.79C198.519 26.1553 197.966 32.3226 194.333 36.1359Z" fill="#263238"/>
<path d="M191.502 27.5598C187.589 28.6818 176.523 30.9416 178.074 26.1082C179.626 21.2748 185.712 20.3567 187.914 21.4003C190.117 22.4439 191.858 19.6819 191.858 19.6819C192.176 20.4666 190.488 22.6244 188.073 22.9775C185.659 23.3305 198.504 21.0158 195.135 25.7551C191.767 30.4943 191.502 27.5598 191.502 27.5598Z" fill="#263238"/>
<path d="M197.686 36.8656C197.363 37.5256 196.917 38.1128 196.374 38.5935C195.831 39.0742 195.202 39.439 194.522 39.6668C192.705 40.271 191.729 38.5997 192.176 36.7793C192.577 35.1394 194.015 32.8561 195.869 33.0522C196.274 33.1014 196.661 33.2548 196.994 33.4984C197.328 33.7421 197.597 34.0683 197.777 34.4473C197.958 34.8263 198.044 35.2461 198.028 35.6685C198.012 36.0908 197.895 36.5024 197.686 36.8656Z" fill="#FFB573"/>
<path d="M186.037 33.0371C186.082 33.516 185.871 33.9321 185.568 33.9635C185.265 33.9949 184.985 33.6259 184.94 33.1784C184.894 32.7309 185.106 32.2834 185.409 32.2598C185.712 32.2363 185.992 32.5582 186.037 33.0371Z" fill="#263238"/>
<path d="M180.792 33.5392C180.837 34.0181 180.625 34.4342 180.322 34.4577C180.019 34.4813 179.732 34.1201 179.694 33.6726C179.656 33.2251 179.861 32.7776 180.163 32.7462C180.466 32.7148 180.746 33.0524 180.792 33.5392Z" fill="#263238"/>
<path d="M182.48 33.6172C182.057 35.1402 181.433 36.5951 180.625 37.9406C180.964 38.1492 181.344 38.2771 181.737 38.3151C182.129 38.3531 182.525 38.3002 182.896 38.1603L182.48 33.6172Z" fill="#ED893E"/>
<path d="M186.658 38.3878C186.016 38.9477 185.223 39.2876 184.387 39.3608C184.351 39.3608 184.316 39.3459 184.291 39.3194C184.265 39.2929 184.251 39.257 184.251 39.2196C184.251 39.1821 184.265 39.1462 184.291 39.1197C184.316 39.0932 184.351 39.0783 184.387 39.0783C184.966 39.0377 185.528 38.856 186.026 38.5478C186.525 38.2397 186.946 37.8138 187.256 37.305C187.264 37.2885 187.275 37.2739 187.288 37.2621C187.302 37.2502 187.318 37.2415 187.335 37.2363C187.352 37.2311 187.37 37.2297 187.388 37.2321C187.405 37.2344 187.422 37.2406 187.437 37.2501C187.469 37.2669 187.494 37.2961 187.505 37.3314C187.516 37.3666 187.514 37.4051 187.498 37.4384C187.274 37.8036 186.989 38.125 186.658 38.3878Z" fill="#263238"/>
<path d="M187.611 31.068C187.561 31.1188 187.493 31.1472 187.422 31.1472C187.352 31.1472 187.284 31.1188 187.233 31.068C187.01 30.7974 186.729 30.5853 186.412 30.4488C186.095 30.3124 185.751 30.2555 185.409 30.2829C185.373 30.2896 185.336 30.2888 185.301 30.2805C185.265 30.2723 185.232 30.2567 185.202 30.2347C185.172 30.2128 185.147 30.1849 185.128 30.1527C185.109 30.1205 185.096 30.0847 185.091 30.0473C185.08 29.9725 185.097 29.8962 185.14 29.8346C185.182 29.773 185.246 29.731 185.318 29.7176C185.751 29.6733 186.188 29.7371 186.592 29.9037C186.996 30.0703 187.356 30.335 187.642 30.6754C187.667 30.7017 187.687 30.7329 187.701 30.7672C187.715 30.8016 187.722 30.8384 187.722 30.8756C187.722 30.9128 187.715 30.9496 187.701 30.984C187.687 31.0183 187.667 31.0495 187.642 31.0758L187.611 31.068Z" fill="#263238"/>
<path d="M178.483 31.8204C178.446 31.8527 178.401 31.8741 178.353 31.8824C178.305 31.8907 178.256 31.8855 178.21 31.8675C178.177 31.8553 178.146 31.8361 178.119 31.8111C178.093 31.7862 178.071 31.7559 178.057 31.7222C178.042 31.6885 178.034 31.652 178.033 31.6149C178.032 31.5778 178.038 31.541 178.051 31.5065C178.196 31.0812 178.436 30.6977 178.752 30.3879C179.068 30.0781 179.45 29.851 179.868 29.7254C179.903 29.7177 179.94 29.7172 179.975 29.7241C180.011 29.7309 180.044 29.745 180.075 29.7654C180.105 29.7858 180.131 29.8121 180.151 29.843C180.172 29.8738 180.186 29.9085 180.194 29.9451C180.201 29.9817 180.201 30.0194 180.195 30.0562C180.188 30.0929 180.175 30.128 180.155 30.1593C180.135 30.1906 180.11 30.2176 180.08 30.2388C180.05 30.2599 180.017 30.2748 179.982 30.2825C179.653 30.3852 179.352 30.5676 179.105 30.8145C178.857 31.0615 178.67 31.3659 178.559 31.7027C178.542 31.7474 178.516 31.7876 178.483 31.8204Z" fill="#263238"/>
<path d="M207.027 34.4175C208.798 44.1236 203.31 53.3039 194.658 55.4539C194.325 55.5323 193.985 55.6029 193.644 55.6657C189.473 56.4056 185.186 55.4653 181.662 53.0372C184.056 53.6547 186.561 53.6393 188.948 52.9926C191.335 52.3458 193.527 51.0882 195.323 49.3353C197.119 47.5823 198.462 45.3899 199.228 42.9592C199.995 40.5285 200.161 37.9372 199.71 35.4229C199.26 32.9085 198.208 30.5517 196.65 28.5683C195.093 26.5849 193.08 25.0386 190.797 24.071C188.513 23.1033 186.032 22.7455 183.58 23.0301C181.129 23.3147 178.785 24.2328 176.765 25.7001C178.46 23.3404 180.719 21.4798 183.32 20.3018C184.487 19.7811 185.709 19.4045 186.96 19.1797C196.203 17.5163 205.18 24.3113 207.027 34.4175Z" fill="#73499E"/>
<path opacity="0.8" d="M207.027 34.4175C208.798 44.1236 203.31 53.3039 194.658 55.4539C194.325 55.5323 193.985 55.6029 193.644 55.6657C189.473 56.4056 185.186 55.4653 181.662 53.0372C184.056 53.6547 186.561 53.6393 188.948 52.9926C191.335 52.3458 193.527 51.0882 195.323 49.3353C197.119 47.5823 198.462 45.3899 199.228 42.9592C199.995 40.5285 200.161 37.9372 199.71 35.4229C199.26 32.9085 198.208 30.5517 196.65 28.5683C195.093 26.5849 193.08 25.0386 190.797 24.071C188.513 23.1033 186.032 22.7455 183.58 23.0301C181.129 23.3147 178.785 24.2328 176.765 25.7001C178.46 23.3404 180.719 21.4798 183.32 20.3018C184.487 19.7811 185.709 19.4045 186.96 19.1797C196.203 17.5163 205.18 24.3113 207.027 34.4175Z" fill="white"/>
<path d="M203.613 35.5946C205.271 44.2727 201.395 52.4252 194.696 55.4539C193.615 55.9351 192.481 56.2802 191.32 56.4818C185.855 57.4077 180.436 55.0302 176.689 50.644C178.887 52.2731 181.475 53.2444 184.17 53.4517C186.864 53.659 189.562 53.0943 191.968 51.8194C194.374 50.5446 196.395 48.6086 197.811 46.2231C199.228 43.8376 199.984 41.0944 199.997 38.2934C200.011 35.4925 199.281 32.7415 197.889 30.3414C196.496 27.9412 194.493 25.9842 192.1 24.6843C189.706 23.3844 187.014 22.7916 184.318 22.9708C181.621 23.15 179.024 24.0942 176.81 25.7002C175.376 26.7304 174.135 28.0226 173.147 29.5136C174.031 27.2535 175.418 25.2415 177.193 23.6409C178.969 22.0404 181.083 20.8964 183.365 20.3018C183.691 20.2234 184.016 20.1606 184.342 20.0978C193.016 18.5992 201.66 25.5511 203.613 35.5946Z" fill="#73499E"/>
<path opacity="0.6" d="M203.613 35.5946C205.271 44.2727 201.395 52.4252 194.696 55.4539C193.615 55.9351 192.481 56.2802 191.32 56.4818C185.855 57.4077 180.436 55.0302 176.689 50.644C178.887 52.2731 181.475 53.2444 184.17 53.4517C186.864 53.659 189.562 53.0943 191.968 51.8194C194.374 50.5446 196.395 48.6086 197.811 46.2231C199.228 43.8376 199.984 41.0944 199.997 38.2934C200.011 35.4925 199.281 32.7415 197.889 30.3414C196.496 27.9412 194.493 25.9842 192.1 24.6843C189.706 23.3844 187.014 22.7916 184.318 22.9708C181.621 23.15 179.024 24.0942 176.81 25.7002C175.376 26.7304 174.135 28.0226 173.147 29.5136C174.031 27.2535 175.418 25.2415 177.193 23.6409C178.969 22.0404 181.083 20.8964 183.365 20.3018C183.691 20.2234 184.016 20.1606 184.342 20.0978C193.016 18.5992 201.66 25.5511 203.613 35.5946Z" fill="white"/>
<path opacity="0.2" d="M199.949 37.4855C200.088 40.5035 199.361 43.4963 197.859 46.0857C196.357 48.675 194.148 50.7446 191.512 52.0326C188.875 53.3207 185.929 53.7694 183.047 53.3221C180.164 52.8748 177.474 51.5515 175.317 49.5195C173.16 47.4876 171.633 44.8382 170.928 41.9065C170.224 38.9747 170.374 35.8922 171.359 33.0488C172.344 30.2053 174.121 27.7285 176.464 25.9317C178.807 24.1348 181.612 23.0986 184.523 22.9539C186.457 22.8579 188.389 23.1576 190.211 23.8359C192.033 24.5142 193.708 25.5579 195.14 26.9073C196.572 28.2568 197.735 29.8855 198.56 31.7005C199.385 33.5156 199.857 35.4813 199.949 37.4855Z" fill="#73499E"/>
<path opacity="0.2" d="M170.505 38.945C170.692 42.9925 172.422 46.7974 175.315 49.5226C178.208 52.2479 182.027 53.6701 185.931 53.4766C189.836 53.2831 193.506 51.4896 196.135 48.4907C198.764 45.4918 200.136 41.5331 199.949 37.4855C193.334 35.9398 177.332 34.857 170.505 38.945Z" fill="#73499E"/>
<path opacity="0.2" d="M202.175 74.5835C195.422 75.0035 188.708 75.9345 182.086 77.369L181.715 77.0159L201.456 63.01L201.819 63.3631C201.819 63.3631 201.978 70.8643 202.175 74.5835Z" fill="black"/>
<path d="M201.811 74.2304C195.056 74.6509 188.339 75.5819 181.715 77.0159C181.344 73.2575 181.056 69.4755 180.875 65.6621C187.668 64.2855 194.544 63.3993 201.456 63.01C201.496 66.7711 201.615 70.5112 201.811 74.2304Z" fill="white"/>
<path opacity="0.3" d="M197.504 66.6351C197.503 66.9112 197.425 67.1812 197.28 67.4129C197.135 67.6446 196.929 67.8283 196.687 67.9423C196.444 68.0563 196.175 68.0957 195.911 68.056C195.648 68.0162 195.4 67.8989 195.199 67.718C194.998 67.537 194.851 67.3 194.776 67.0351C194.7 66.7702 194.7 66.4885 194.775 66.2233C194.849 65.9582 194.995 65.7208 195.196 65.5392C195.397 65.3577 195.644 65.2397 195.907 65.1992C196.302 65.1752 196.689 65.312 196.988 65.5802C197.286 65.8485 197.472 66.227 197.504 66.6351Z" fill="#73499E"/>
<path opacity="0.3" d="M197.625 71.0996C197.624 71.3762 197.546 71.6466 197.401 71.8786C197.256 72.1106 197.05 72.2945 196.807 72.4085C196.564 72.5224 196.294 72.5616 196.03 72.5214C195.766 72.4811 195.519 72.3631 195.318 72.1815C195.117 71.9998 194.97 71.762 194.896 71.4965C194.821 71.231 194.822 70.9488 194.897 70.6836C194.973 70.4184 195.12 70.1813 195.322 70.0005C195.524 69.8197 195.772 69.7028 196.036 69.6637C196.429 69.6419 196.815 69.7796 197.112 70.0477C197.408 70.3157 197.593 70.6931 197.625 71.0996Z" fill="#73499E"/>
<path d="M184.198 73.8067C186.645 73.3531 189.113 73.0309 191.593 72.8416C189.95 70.4877 187.49 66.4625 187.49 66.4625C186.262 68.8453 185.163 71.2972 184.198 73.8067Z" fill="#73499E"/>
</svg>
